<svg width="500" height="500" viewBox="0 0 500 500" fill="none" xmlns="http://www.w3.org/2000/svg">
<path d="M331.7 273.32C309.7 317.57 285.06 345.01 236.61 333.32C197.06 323.81 202.81 291.11 176.55 268.06C143.92 239.42 104.41 257.14 83.08 214.16C62.5 172.7 89.85 118.74 130.16 104.36C173.24 88.9998 211.33 125.6 253 128.14C301.89 131.14 338.59 93.8598 388.38 114.14C421.8 127.72 436.04 165.35 412.59 200.98C391 233.8 351.85 232.74 331.7 273.32Z" fill="#000000"/>
<path opacity="0.9" d="M331.7 273.32C309.7 317.57 285.06 345.01 236.61 333.32C197.06 323.81 202.81 291.11 176.55 268.06C143.92 239.42 104.41 257.14 83.08 214.16C62.5 172.7 89.85 118.74 130.16 104.36C173.24 88.9998 211.33 125.6 253 128.14C301.89 131.14 338.59 93.8598 388.38 114.14C421.8 127.72 436.04 165.35 412.59 200.98C391 233.8 351.85 232.74 331.7 273.32Z" fill="#FFFFFF"/>
<path d="M250 427.56C357.082 427.56 443.89 422.492 443.89 416.24C443.89 409.988 357.082 404.92 250 404.92C142.917 404.92 56.1099 409.988 56.1099 416.24C56.1099 422.492 142.917 427.56 250 427.56Z" fill="#FFFFFF"/>
<path d="M334.58 101.57C326.81 103.2 320.3 111.39 315.33 121.49C310.36 131.59 306.17 132.65 306.17 132.65C317.855 141.503 332.532 145.449 347.08 143.65C361.33 141.79 360.08 111.07 354.67 108.82C356.33 102.65 342.17 100 334.58 101.57Z" fill="#263238"/>
<path d="M365 161.66C365.2 163.79 365.45 166.14 365.75 168.39C366.05 170.64 366.39 172.92 366.75 175.17C367.501 179.65 368.502 184.083 369.75 188.45C370.06 189.53 370.39 190.6 370.75 191.65L371.28 193.24L371.87 194.79L372.4 196.18L372.5 196.44C372.5 196.44 372.5 196.44 372.16 196.2C371.935 196.058 371.693 195.944 371.44 195.86C371.053 195.736 370.646 195.688 370.24 195.72C369.73 195.751 369.243 195.944 368.85 196.27C368.62 196.55 368.91 196.34 369.09 196.06C369.648 195.288 370.124 194.461 370.51 193.59C370.98 192.59 371.43 191.59 371.85 190.59C372.71 188.51 373.54 186.3 374.35 184.15L379 185C378.874 187.465 378.597 189.919 378.17 192.35C377.94 193.58 377.68 194.81 377.33 196.07C376.968 197.451 376.466 198.792 375.83 200.07C375.34 201.039 374.66 201.899 373.83 202.6C372.925 203.375 371.783 203.817 370.592 203.855C369.402 203.894 368.233 203.525 367.28 202.81C366.689 202.385 366.172 201.864 365.75 201.27C365.452 200.869 365.181 200.448 364.94 200.01L364.65 199.45L364.45 199.01L364.06 198.15L363.28 196.42L362.59 194.68C362.11 193.52 361.71 192.34 361.31 191.17C359.737 186.503 358.494 181.732 357.59 176.89C357.11 174.49 356.72 172.08 356.4 169.66C356.08 167.24 355.81 164.86 355.67 162.28L365 161.66Z" fill="#FFB573"/>
<path d="M361.48 151.08C364.72 151.9 366.55 173.34 366.55 173.34L357.93 178.52C357.93 178.52 352.72 162.69 353.52 155.85C354.09 150.89 359 150.46 361.48 151.08Z" fill="#FFB573"/>
<path d="M374.31 184.56L376.36 175.56L380.94 184.85C380.5 185.89 379.788 186.793 378.878 187.461C377.968 188.13 376.894 188.541 375.77 188.65L374.31 184.56Z" fill="#FFB573"/>
<path d="M342.62 402.94H351.8L356.57 369.23H343.98L342.62 402.94Z" fill="#FFB573"/>
<path d="M281.25 382.84L289.59 386.68L305.86 358.68L294 353.91L281.25 382.84Z" fill="#FFB573"/>
<path d="M291.24 385.48L282.62 379.82C282.473 379.721 282.296 379.68 282.12 379.704C281.945 379.728 281.785 379.816 281.67 379.95L276.21 386.12C276.077 386.28 275.979 386.466 275.924 386.666C275.868 386.867 275.856 387.077 275.888 387.282C275.92 387.488 275.996 387.684 276.11 387.858C276.224 388.031 276.374 388.179 276.55 388.29C279.55 390.21 281.15 390.99 284.94 393.47C287.27 395 290.52 397.47 293.74 399.59C296.96 401.71 299.23 398.59 298.07 397.46C292.91 392.23 293.13 389.82 292.22 386.79C292.056 386.252 291.71 385.789 291.24 385.48Z" fill="#263238"/>
<path d="M352.55 401.87H342.24C342.063 401.868 341.891 401.932 341.756 402.047C341.622 402.163 341.535 402.324 341.51 402.5L340.34 410.66C340.318 410.866 340.339 411.075 340.403 411.272C340.466 411.469 340.571 411.651 340.71 411.805C340.849 411.959 341.019 412.081 341.208 412.165C341.398 412.249 341.603 412.291 341.81 412.29C345.4 412.23 347.13 412.02 351.67 412.02C354.46 412.02 360.23 412.31 364.08 412.31C367.93 412.31 368.14 408.5 366.53 408.15C359.34 406.61 356.53 404.47 354.09 402.44C353.659 402.076 353.115 401.874 352.55 401.87Z" fill="#263238"/>
<path d="M362.05 151.06C362.05 151.06 366.43 152.6 357.67 206.45H320.4C321.02 191.28 321.04 181.93 313.79 150.8C319.009 149.722 324.3 149.023 329.62 148.71C335.253 148.31 340.907 148.31 346.54 148.71C353.81 149.38 362.05 151.06 362.05 151.06Z" fill="#263238"/>
<path opacity="0.2" d="M319.9 158.31L316.9 164.77C317.76 169.01 318.44 172.77 318.97 176.11C320.738 170.343 321.057 164.23 319.9 158.31Z" fill="#000000"/>
<path d="M374.249 170.373L352.137 177.091L358.855 199.203L380.967 192.485L374.249 170.373Z" fill="#000000"/>
<path d="M376.36 175.53L380.94 184.82L376.3 183.74L372.89 175.05L376.36 175.53Z" fill="#FFB573"/>
<path d="M331.29 129.66C332.36 135.1 333.43 145.08 329.62 148.71C334.365 153.76 339.897 158.008 346 161.29C351.29 152.73 346.51 148.71 346.51 148.71C340.44 147.26 340.6 142.71 341.65 138.53L331.29 129.66Z" fill="#FFB573"/>
<path opacity="0.2" d="M334 134L341.71 138.57C341.451 139.553 341.277 140.557 341.19 141.57C339.42 141.57 335.13 139.86 333.88 136.93C333.57 135.97 333.612 134.931 334 134Z" fill="#000000"/>
<path d="M352.78 120.41C350.66 129.27 349.95 133.06 344.63 136.86C336.63 142.58 326.2 138.05 325.63 128.73C325.11 120.35 328.63 107.27 338.05 105.24C340.119 104.784 342.27 104.864 344.299 105.473C346.328 106.082 348.168 107.2 349.643 108.72C351.119 110.239 352.182 112.111 352.731 114.157C353.28 116.203 353.297 118.356 352.78 120.41Z" fill="#FFB573"/>
<path d="M347.47 107.71C342.41 108.19 342.61 119.18 350.56 125.57C356.11 122.63 356.33 119.96 356.33 119.96C356.33 119.96 355.67 106.93 347.47 107.71Z" fill="#263238"/>
<path d="M353.43 109.52C344 112.4 330 112 325.58 111.32C327.475 108.672 330.012 106.549 332.952 105.149C335.892 103.75 339.14 103.121 342.39 103.32C348.67 103.9 352.31 107.52 353.43 109.52Z" fill="#263238"/>
<path d="M349.349 112.298L344.009 112.626C343.728 112.643 343.514 112.885 343.531 113.166L343.559 113.625C343.577 113.906 343.818 114.12 344.1 114.103L349.44 113.775C349.721 113.758 349.935 113.516 349.917 113.235L349.889 112.776C349.872 112.495 349.63 112.281 349.349 112.298Z" fill="#000000"/>
<path d="M357.67 206.45C357.67 206.45 364.91 277.15 364.31 305.13C363.68 334.24 357.83 370.24 357.83 370.24H341.88C341.88 370.24 342.57 335.94 341.47 307.35C340.28 276.19 330.38 206.45 330.38 206.45H357.67Z" fill="#000000"/>
<path opacity="0.2" d="M357.67 206.45C357.67 206.45 364.91 277.15 364.31 305.13C363.68 334.24 357.83 370.24 357.83 370.24H341.88C341.88 370.24 342.57 335.94 341.47 307.35C340.28 276.19 330.38 206.45 330.38 206.45H357.67Z" fill="#FFFFFF"/>
<path d="M340.51 371.84H358.56L359.88 367.19L339.67 366.63L340.51 371.84Z" fill="#263238"/>
<path opacity="0.2" d="M341.59 224C350.75 242.42 343.43 276 340.19 288.51C338.53 269.74 335.73 246.79 333.55 229.94C334.94 220.45 337.37 215.55 341.59 224Z" fill="#000000"/>
<path d="M347.83 206.45C347.83 206.45 339.38 280 333 303.54C325.43 331.54 307.78 359.46 307.78 359.46L292.35 353.25C292.35 353.25 302.95 320.2 308.74 305.44C321.09 273.94 310.51 227.01 320.39 206.44L347.83 206.45Z" fill="#000000"/>
<path opacity="0.2" d="M347.83 206.45C347.83 206.45 339.38 280 333 303.54C325.43 331.54 307.78 359.46 307.78 359.46L292.35 353.25C292.35 353.25 302.95 320.2 308.74 305.44C321.09 273.94 310.51 227.01 320.39 206.44L347.83 206.45Z" fill="#FFFFFF"/>
<path d="M291.12 355.56L307.17 361.94L310.6 358.01L292.91 349.92L291.12 355.56Z" fill="#263238"/>
<path d="M337.82 120.61C337.7 121.34 337.21 121.87 336.73 121.78C336.25 121.69 335.97 121.04 336.1 120.31C336.23 119.58 336.72 119.06 337.19 119.14C337.66 119.22 338 119.88 337.82 120.61Z" fill="#263238"/>
<path d="M329.58 119.17C329.46 119.9 328.97 120.42 328.49 120.34C328.01 120.26 327.73 119.6 327.86 118.87C327.99 118.14 328.48 117.61 328.95 117.7C329.42 117.79 329.71 118.44 329.58 119.17Z" fill="#263238"/>
<path d="M329.16 117.78L327.49 116.96C327.49 116.96 328.15 118.49 329.16 117.78Z" fill="#263238"/>
<path d="M331.92 120.72C330.979 122.268 329.832 123.681 328.51 124.92C328.834 125.252 329.226 125.508 329.66 125.67C330.094 125.833 330.558 125.898 331.02 125.86L331.92 120.72Z" fill="#FFB573"/>
<path d="M334.88 129.29C334.464 129.291 334.049 129.254 333.64 129.18C333.583 129.17 333.533 129.139 333.499 129.092C333.465 129.045 333.451 128.987 333.46 128.93C333.465 128.901 333.475 128.873 333.491 128.848C333.507 128.823 333.528 128.802 333.552 128.785C333.576 128.768 333.604 128.756 333.632 128.75C333.661 128.744 333.691 128.744 333.72 128.75C334.623 128.931 335.555 128.896 336.442 128.648C337.328 128.399 338.143 127.944 338.82 127.32C338.861 127.283 338.914 127.262 338.97 127.263C339.025 127.263 339.078 127.284 339.119 127.322C339.159 127.36 339.184 127.412 339.188 127.467C339.192 127.522 339.175 127.577 339.14 127.62C337.996 128.718 336.465 129.318 334.88 129.29Z" fill="#263238"/>
<path d="M353.17 127.08C352.493 128.706 351.198 129.998 349.57 130.67C347.41 131.55 346.07 129.67 346.45 127.5C346.8 125.5 348.34 122.72 350.62 122.77C351.116 122.795 351.598 122.941 352.022 123.198C352.447 123.454 352.802 123.812 353.055 124.239C353.308 124.666 353.45 125.149 353.47 125.645C353.49 126.141 353.387 126.634 353.17 127.08Z" fill="#FFB573"/>
<path d="M342.85 117.53C342.791 117.526 342.733 117.509 342.681 117.479C342.629 117.45 342.584 117.409 342.55 117.36C342.239 116.912 341.825 116.544 341.343 116.287C340.862 116.029 340.326 115.89 339.78 115.88C339.665 115.886 339.553 115.846 339.467 115.769C339.381 115.693 339.328 115.585 339.32 115.47C339.315 115.355 339.355 115.243 339.431 115.157C339.508 115.07 339.615 115.018 339.73 115.01C340.42 115.014 341.099 115.181 341.712 115.5C342.324 115.818 342.851 116.277 343.25 116.84C343.318 116.933 343.347 117.05 343.33 117.164C343.313 117.278 343.252 117.381 343.16 117.45C343.117 117.484 343.067 117.508 343.013 117.522C342.96 117.536 342.905 117.538 342.85 117.53Z" fill="#263238"/>
<path d="M327.21 115C327.099 114.998 326.992 114.955 326.91 114.88C326.828 114.798 326.782 114.686 326.782 114.57C326.782 114.454 326.828 114.342 326.91 114.26C327.373 113.747 327.953 113.354 328.601 113.114C329.248 112.874 329.945 112.793 330.63 112.88C330.744 112.902 330.844 112.968 330.91 113.063C330.975 113.159 331 113.276 330.98 113.39C330.956 113.502 330.889 113.601 330.795 113.666C330.7 113.732 330.584 113.758 330.47 113.74C329.928 113.679 329.379 113.749 328.869 113.944C328.359 114.139 327.904 114.453 327.54 114.86C327.497 114.905 327.446 114.94 327.39 114.964C327.333 114.988 327.272 115 327.21 115Z" fill="#263238"/>
<path d="M318.64 163.59C318.35 164.81 318.05 166.25 317.77 167.59C317.49 168.93 317.25 170.34 317.04 171.71C316.58 174.47 316.21 177.23 316.04 179.98C315.824 182.681 315.778 185.393 315.9 188.1C315.963 189.409 316.094 190.714 316.29 192.01C316.34 192.32 316.38 192.64 316.44 192.95L316.54 193.41V193.65C316.54 193.65 316.54 193.77 316.54 193.72C316.545 193.67 316.545 193.62 316.54 193.57C316.43 193.268 316.248 192.997 316.01 192.78C315.89 192.68 315.83 192.69 315.91 192.73C316.225 192.902 316.561 193.03 316.91 193.11C317.467 193.247 318.031 193.351 318.6 193.42C319.908 193.57 321.224 193.647 322.54 193.65C325.28 193.71 328.12 193.54 330.96 193.36C333.8 193.18 336.69 192.89 339.56 192.56C342.43 192.23 345.33 191.89 348.18 191.56L349.18 196.09C346.31 196.99 343.46 197.7 340.57 198.43C337.68 199.16 334.76 199.71 331.81 200.24C328.813 200.785 325.789 201.169 322.75 201.39C321.139 201.501 319.523 201.521 317.91 201.45C317.022 201.403 316.138 201.306 315.26 201.16C314.179 200.973 313.129 200.636 312.14 200.16C311.441 199.834 310.794 199.406 310.22 198.89C309.438 198.183 308.844 197.293 308.49 196.3L308.36 195.89L308.3 195.7L308.22 195.4L308.06 194.8C307.95 194.39 307.87 193.99 307.78 193.59C307.424 192.011 307.163 190.411 307 188.8C306.677 185.674 306.596 182.528 306.76 179.39C306.91 176.3 307.22 173.24 307.66 170.22C307.9 168.7 308.17 167.22 308.48 165.7C308.79 164.18 309.1 162.75 309.54 161.14L318.64 163.59Z" fill="#FFB573"/>
<path d="M313.83 150.8C309.46 153.02 307.14 175.45 307.14 175.45L316.14 178.11C316.14 178.11 318.08 166.8 320.29 159.45C321.78 154.5 316.94 149.22 313.83 150.8Z" fill="#FFB573"/>
<path d="M294.85 389.07C295.031 389.014 295.196 388.919 295.334 388.791C295.473 388.663 295.581 388.505 295.65 388.33C295.717 388.216 295.752 388.087 295.752 387.955C295.752 387.823 295.717 387.694 295.65 387.58C295.03 386.58 291.71 386.58 291.33 386.58C291.288 386.581 291.247 386.594 291.212 386.617C291.177 386.64 291.149 386.672 291.13 386.71C291.109 386.747 291.098 386.788 291.098 386.83C291.098 386.872 291.109 386.914 291.13 386.95C291.97 387.83 293.55 389.29 294.7 389.11L294.85 389.07ZM291.85 387.01C293.18 387.06 294.95 387.29 295.28 387.81C295.311 387.86 295.328 387.917 295.328 387.975C295.328 388.033 295.311 388.091 295.28 388.14C295.231 388.273 295.15 388.391 295.043 388.483C294.937 388.576 294.808 388.64 294.67 388.67C294 388.77 293 388.16 291.83 387L291.85 387.01Z" fill="#000000"/>
<path d="M292.81 386.78C293.81 386.49 294.92 385.97 295.17 385.35C295.232 385.189 295.239 385.012 295.188 384.847C295.137 384.682 295.032 384.539 294.89 384.44C294.763 384.333 294.614 384.254 294.454 384.209C294.293 384.164 294.125 384.154 293.96 384.18C292.65 384.37 291.18 386.57 291.12 386.67C291.102 386.702 291.091 386.738 291.09 386.775C291.089 386.812 291.098 386.849 291.115 386.882C291.132 386.915 291.157 386.943 291.187 386.964C291.218 386.984 291.253 386.997 291.29 387C291.805 387.006 292.318 386.931 292.81 386.78ZM293.89 384.64H294.02C294.124 384.623 294.231 384.628 294.333 384.656C294.435 384.683 294.529 384.732 294.61 384.8C294.82 384.98 294.81 385.12 294.77 385.22C294.53 385.81 292.84 386.49 291.77 386.59C292.288 385.761 293.021 385.087 293.89 384.64Z" fill="#000000"/>
<path d="M356 403.48C356.784 403.554 357.569 403.352 358.22 402.91C358.367 402.778 358.48 402.613 358.55 402.429C358.619 402.244 358.643 402.046 358.62 401.85C358.611 401.732 358.573 401.618 358.508 401.518C358.443 401.418 358.355 401.337 358.25 401.28C357.12 400.66 353.46 402.53 353.05 402.74C353.01 402.762 352.978 402.796 352.959 402.838C352.939 402.879 352.932 402.925 352.94 402.97C352.946 403.014 352.965 403.056 352.996 403.088C353.026 403.12 353.066 403.142 353.11 403.15C354.062 403.347 355.029 403.458 356 403.48ZM357.63 401.58C357.772 401.571 357.913 401.598 358.04 401.66C358.082 401.682 358.118 401.715 358.142 401.756C358.167 401.796 358.18 401.843 358.18 401.89C358.202 402.019 358.19 402.15 358.147 402.273C358.103 402.395 358.028 402.505 357.93 402.59C357.38 403.09 355.86 403.18 353.83 402.84C355.015 402.204 356.3 401.778 357.63 401.58Z" fill="#000000"/>
<path d="M353.15 403.15C353.18 403.159 353.211 403.159 353.24 403.15C354.33 402.66 356.5 400.68 356.33 399.64C356.33 399.39 356.11 399.09 355.51 399.03C355.296 399.007 355.079 399.028 354.872 399.092C354.666 399.155 354.475 399.26 354.31 399.4C353.16 400.4 352.94 402.83 352.94 402.94C352.935 402.977 352.941 403.015 352.957 403.049C352.973 403.082 352.998 403.111 353.03 403.13C353.067 403.151 353.109 403.158 353.15 403.15ZM355.34 399.43H355.47C355.87 399.43 355.89 399.63 355.9 399.68C356 400.3 354.53 401.86 353.42 402.54C353.505 401.498 353.914 400.508 354.59 399.71C354.798 399.529 355.065 399.43 355.34 399.43Z" fill="#000000"/>
<path d="M319.84 204.26L318.89 207.6C318.76 207.86 319.06 208.12 319.49 208.12H357.85C358.19 208.12 358.47 207.96 358.49 207.75L358.82 204.41C358.82 204.18 358.56 203.98 358.19 203.98H320.45C320.333 203.971 320.215 203.992 320.109 204.041C320.002 204.09 319.909 204.165 319.84 204.26Z" fill="#000000"/>
<path d="M324.91 208.49H323.91C323.71 208.49 323.55 208.38 323.57 208.25L324.04 203.92C324.04 203.79 324.23 203.69 324.43 203.69H325.43C325.63 203.69 325.79 203.79 325.77 203.92L325.3 208.25C325.29 208.38 325.11 208.49 324.91 208.49Z" fill="#000000"/>
<path opacity="0.15" d="M324.91 208.49H323.91C323.71 208.49 323.55 208.38 323.57 208.25L324.04 203.92C324.04 203.79 324.23 203.69 324.43 203.69H325.43C325.63 203.69 325.79 203.79 325.77 203.92L325.3 208.25C325.29 208.38 325.11 208.49 324.91 208.49Z" fill="#FFFFFF"/>
<path d="M355 208.49H354C353.8 208.49 353.65 208.38 353.66 208.25L354.13 203.92C354.13 203.79 354.32 203.69 354.53 203.69H355.53C355.73 203.69 355.88 203.79 355.87 203.92L355.39 208.25C355.39 208.38 355.21 208.49 355 208.49Z" fill="#000000"/>
<path opacity="0.15" d="M355 208.49H354C353.8 208.49 353.65 208.38 353.66 208.25L354.13 203.92C354.13 203.79 354.32 203.69 354.53 203.69H355.53C355.73 203.69 355.88 203.79 355.87 203.92L355.39 208.25C355.39 208.38 355.21 208.49 355 208.49Z" fill="#FFFFFF"/>
<path d="M340 208.49H339C338.8 208.49 338.64 208.38 338.66 208.25L339.13 203.92C339.13 203.79 339.32 203.69 339.52 203.69H340.52C340.73 203.69 340.88 203.79 340.87 203.92L340.39 208.25C340.34 208.38 340.16 208.49 340 208.49Z" fill="#000000"/>
<path opacity="0.15" d="M340 208.49H339C338.8 208.49 338.64 208.38 338.66 208.25L339.13 203.92C339.13 203.79 339.32 203.69 339.52 203.69H340.52C340.73 203.69 340.88 203.79 340.87 203.92L340.39 208.25C340.34 208.38 340.16 208.49 340 208.49Z" fill="#FFFFFF"/>
<path d="M346.84 191.85L353.78 184.76L354.67 194.05C354.67 194.05 349.81 197.37 346.42 195.61L346.84 191.85Z" fill="#FFB573"/>
<path d="M361.42 183.74L361.75 191.56L353.38 194.8L353.77 184.76L361.42 183.74Z" fill="#FFB573"/>
<path d="M337.4 119.22L335.73 118.41C335.73 118.41 336.39 119.93 337.4 119.22Z" fill="#263238"/>
<path d="M302.79 170C303.437 170 304.058 170.257 304.516 170.715C304.973 171.172 305.23 171.793 305.23 172.44V416.24H300.34V172.46C300.339 172.137 300.401 171.818 300.524 171.519C300.647 171.221 300.827 170.95 301.054 170.721C301.282 170.493 301.553 170.311 301.85 170.187C302.148 170.064 302.468 170 302.79 170Z" fill="#263238"/>
<path d="M124.17 170C124.817 170 125.438 170.257 125.895 170.715C126.353 171.172 126.61 171.793 126.61 172.44V416.24H121.73V172.46C121.727 172.138 121.789 171.818 121.91 171.52C122.031 171.222 122.211 170.95 122.438 170.722C122.664 170.493 122.934 170.311 123.232 170.188C123.529 170.064 123.848 170 124.17 170Z" fill="#263238"/>
<path d="M103 193.13H317.35C318.029 193.13 318.68 192.86 319.16 192.38C319.64 191.9 319.91 191.249 319.91 190.57C319.908 189.893 319.637 189.244 319.157 188.766C318.677 188.288 318.027 188.02 317.35 188.02H103C102.325 188.023 101.678 188.292 101.2 188.77C100.722 189.247 100.453 189.895 100.45 190.57C100.45 191.247 100.719 191.897 101.196 192.377C101.674 192.856 102.323 193.127 103 193.13Z" fill="#000000"/>
<path d="M103 256.13H317.35C318.029 256.13 318.68 255.86 319.16 255.38C319.64 254.9 319.91 254.249 319.91 253.57C319.908 252.893 319.637 252.244 319.157 251.766C318.677 251.288 318.027 251.02 317.35 251.02H103C102.325 251.023 101.678 251.292 101.2 251.77C100.722 252.247 100.453 252.895 100.45 253.57C100.45 254.247 100.719 254.897 101.196 255.377C101.674 255.856 102.323 256.127 103 256.13Z" fill="#000000"/>
<path d="M103 319.13H317.35C318.029 319.13 318.68 318.86 319.16 318.38C319.64 317.9 319.91 317.249 319.91 316.57C319.908 315.893 319.637 315.244 319.157 314.766C318.677 314.288 318.027 314.02 317.35 314.02H103C102.325 314.023 101.678 314.292 101.2 314.77C100.722 315.247 100.453 315.895 100.45 316.57C100.45 317.247 100.719 317.897 101.196 318.377C101.674 318.857 102.323 319.127 103 319.13Z" fill="#000000"/>
<path opacity="0.3" d="M281.64 193.13H317.35C318.029 193.13 318.68 192.86 319.16 192.38C319.64 191.9 319.91 191.249 319.91 190.57C319.907 189.893 319.637 189.244 319.157 188.766C318.677 188.288 318.027 188.02 317.35 188.02H281.64C280.963 188.02 280.313 188.288 279.833 188.766C279.354 189.244 279.083 189.893 279.08 190.57C279.08 191.249 279.35 191.9 279.83 192.38C280.31 192.86 280.961 193.13 281.64 193.13Z" fill="#000000"/>
<path opacity="0.3" d="M281.64 256.13H317.35C318.029 256.13 318.68 255.86 319.16 255.38C319.64 254.9 319.91 254.249 319.91 253.57C319.907 252.893 319.637 252.244 319.157 251.766C318.677 251.288 318.027 251.02 317.35 251.02H281.64C280.963 251.02 280.313 251.288 279.833 251.766C279.354 252.244 279.083 252.893 279.08 253.57C279.08 254.249 279.35 254.9 279.83 255.38C280.31 255.86 280.961 256.13 281.64 256.13Z" fill="#000000"/>
<path opacity="0.3" d="M281.64 319.13H317.35C318.029 319.13 318.68 318.86 319.16 318.38C319.64 317.9 319.91 317.249 319.91 316.57C319.907 315.893 319.637 315.244 319.157 314.766C318.677 314.288 318.027 314.02 317.35 314.02H281.64C280.963 314.02 280.313 314.288 279.833 314.766C279.354 315.244 279.083 315.893 279.08 316.57C279.08 317.249 279.35 317.9 279.83 318.38C280.31 318.86 280.961 319.13 281.64 319.13Z" fill="#000000"/>
<path d="M275.67 171.71L276.67 171.45C275.771 168.03 273.764 165.005 270.964 162.847C268.163 160.688 264.726 159.519 261.19 159.52V160.52C264.5 160.526 267.715 161.627 270.335 163.651C272.954 165.675 274.83 168.509 275.67 171.71Z" fill="#000000"/>
<path d="M276.44 180.27C276.919 178.732 277.162 177.131 277.16 175.52H276.16C276.158 177.028 275.933 178.528 275.49 179.97L276.44 180.27Z" fill="#000000"/>
<path d="M261.16 188.02C268.064 188.02 273.66 182.424 273.66 175.52C273.66 168.616 268.064 163.02 261.16 163.02C254.257 163.02 248.66 168.616 248.66 175.52C248.66 182.424 254.257 188.02 261.16 188.02Z" fill="#000000"/>
<path d="M211.04 188.02C217.944 188.02 223.54 182.424 223.54 175.52C223.54 168.616 217.944 163.02 211.04 163.02C204.136 163.02 198.54 168.616 198.54 175.52C198.54 182.424 204.136 188.02 211.04 188.02Z" fill="#000000"/>
<path opacity="0.3" d="M211.04 188.02C217.944 188.02 223.54 182.424 223.54 175.52C223.54 168.616 217.944 163.02 211.04 163.02C204.136 163.02 198.54 168.616 198.54 175.52C198.54 182.424 204.136 188.02 211.04 188.02Z" fill="#000000"/>
<path d="M160.91 188.02C167.814 188.02 173.41 182.424 173.41 175.52C173.41 168.616 167.814 163.02 160.91 163.02C154.007 163.02 148.41 168.616 148.41 175.52C148.41 182.424 154.007 188.02 160.91 188.02Z" fill="#000000"/>
<path opacity="0.5" d="M160.91 188.02C167.814 188.02 173.41 182.424 173.41 175.52C173.41 168.616 167.814 163.02 160.91 163.02C154.007 163.02 148.41 168.616 148.41 175.52C148.41 182.424 154.007 188.02 160.91 188.02Z" fill="#FFFFFF"/>
<path d="M199.48 251.02H222.59V227.91H199.48V251.02Z" fill="#000000"/>
<path opacity="0.3" d="M199.48 251.02H222.59V227.91H199.48V251.02Z" fill="#000000"/>
<path d="M149.36 251.02H172.47V227.91H149.36V251.02Z" fill="#000000"/>
<path opacity="0.5" d="M149.36 251.02H172.47V227.91H149.36V251.02Z" fill="#FFFFFF"/>
<path d="M261.16 289.68L275.21 314.02H247.11L261.16 289.68Z" fill="#000000"/>
<path d="M211.03 289.68L225.08 314.02H196.99L211.03 289.68Z" fill="#000000"/>
<path opacity="0.3" d="M211.03 289.68L225.08 314.02H196.99L211.03 289.68Z" fill="#000000"/>
<path d="M160.91 289.68L174.96 314.02H146.86L160.91 289.68Z" fill="#000000"/>
<path opacity="0.5" d="M160.91 289.68L174.96 314.02H146.86L160.91 289.68Z" fill="#FFFFFF"/>
</svg>
