<svg width="785" height="738" viewBox="0 0 785 738" fill="none" xmlns="http://www.w3.org/2000/svg">
<path d="M289.059 0.325645C285.872 0.995837 283.175 2.28835 277.634 5.83079C245.271 26.4631 216.39 46.0423 193.49 62.8449L187.165 67.4884H184.027C181.281 67.4884 180.938 67.5842 180.938 68.398C180.938 69.116 181.33 69.4032 182.654 69.499L184.321 69.6426L179.319 73.3286C172.16 78.5944 153.478 93.4344 144.358 101.046C119.448 121.87 100.668 141.114 90.4688 156.289C84.2414 165.576 80.6128 173.044 81.0541 175.533C81.2012 176.251 85.8105 199.516 91.2533 227.185L101.109 277.498L97.922 282.955C96.2058 285.971 93.1657 290.854 91.2533 293.822C86.8402 300.667 85.7124 302.821 84.3885 307.321C82.7213 312.779 78.8476 319.528 68.2071 335.278C52.1728 359.117 49.8191 363.474 47.8087 372.809C46.7299 377.835 44.9647 391.239 42.6601 411.201C39.1296 441.982 37.2663 452.083 33.0493 464.098C21.281 497.273 15.8872 532.984 12.5038 600.53C10.1992 645.959 7.69843 671.331 2.20656 705.511C0.980691 712.979 0 719.393 0 719.728C0 720.877 1.422 720.542 1.71621 719.345C2.40269 716.33 6.57063 688.852 8.0907 677.363C11.0328 654.863 13.1413 628.151 14.4652 597.179C15.6911 568.217 19.0254 533.894 22.6049 513.166C25.7922 494.64 28.391 484.108 33.5887 468.646C39.669 450.694 40.9439 443.945 45.1118 406.893C47.8087 383.053 49.3778 372.761 51.045 367.926C53.1044 362.038 57.4195 354.665 67.1774 340.352C79.9754 321.635 84.3395 314.262 86.0557 308.566C86.497 306.986 87.5267 304.497 88.2622 303.013L89.6842 300.284L93.0186 299.997C97.3827 299.614 102.09 300.236 105.375 301.577C107.484 302.486 108.023 302.582 108.366 302.055C109.004 301.098 108.661 300.811 105.522 299.614C103.414 298.848 101.305 298.513 96.9904 298.322C93.8031 298.226 91.2043 298.034 91.2043 297.939C91.2043 297.699 97.7259 287.215 99.8834 283.96C102.335 280.274 107.484 269.599 109.543 263.855C112.78 254.807 115.673 241.834 116.457 232.786C116.653 230.584 117.095 228.622 117.389 228.382C118.468 227.521 124.303 226.898 126.803 227.329C130.334 227.999 131.658 228.574 133.766 230.441C137.689 233.887 140.337 241.547 142.151 254.663C144.064 268.354 144.701 284.918 143.671 294.348C143.23 298.369 142.838 299.566 139.798 306.077C132.884 320.773 126.901 336.235 126.215 341.07C125.332 347.389 118.517 355.671 114.251 355.671C112.583 355.671 111.014 356.772 111.554 357.586C111.799 357.969 112.583 358.064 114.054 357.873C116.751 357.538 118.664 356.58 121.164 354.378L123.077 352.703V355.575C123.077 361.798 120.968 368.309 117.487 373.144C115.28 376.112 114.986 377.213 116.457 377.213C117.389 377.213 119.791 374.293 121.606 370.942C123.959 366.633 125.087 361.559 125.234 354.953C125.283 351.41 125.578 348.777 125.97 348.059C126.607 346.958 126.607 346.958 128.078 349.495C128.863 350.932 131.069 354.713 132.933 357.873C141.661 372.856 145.191 383.292 146.613 398.276C147.447 407.467 147.741 444.902 147.153 469.077L146.613 491.815L144.799 495.31C142.642 499.523 138.523 504.549 135.826 506.272C133.766 507.613 133.276 508.857 134.747 508.857C136.855 508.857 143.181 502.826 145.486 498.661L146.368 497.129L146.515 498.565C146.613 499.331 147.741 509.145 149.065 520.346L151.419 540.691L149.899 543.707C147.986 547.441 144.799 550.744 141.906 552.037C140.68 552.563 139.601 552.899 139.503 552.803C139.454 552.755 138.425 551.127 137.297 549.308C129.795 537.245 125.038 532.075 118.566 529.059C112.632 526.234 104.002 522.979 92.0379 518.958C81.1522 515.32 79.7302 515.033 80.0244 516.373C80.1225 517.043 82.9175 518.144 90.9591 520.873C103.904 525.229 115.771 529.825 119.939 532.075C123.518 534.037 126.215 536.91 130.873 543.564C137.297 552.803 137.787 553.808 137.787 557.446C137.787 561.659 137.052 566.015 135.433 571.089C134.208 574.919 134.11 575.733 134.11 584.685V594.163L133.031 587.318C132.491 583.536 131.609 577.313 131.118 573.483C130.285 566.733 129.647 564.866 128.471 565.584C127.735 566.015 127.784 566.207 130.922 587.605C134.6 612.641 136.659 628.439 138.277 643.614C139.062 651.225 140.925 668.698 142.396 682.389C143.867 696.08 145.78 713.745 146.613 721.643C148.182 736.34 148.624 738.781 149.654 737.776C150.291 737.153 150.193 736.34 146.564 703.931C143.377 675.208 138.964 629.252 137.542 610.344C135.826 586.456 135.728 576.547 137.297 572.765C138.277 570.324 139.749 563.287 139.749 560.797C139.798 555.867 140.092 555.101 142.593 554.095C145.584 552.899 149.408 549.069 151.566 545.096L153.282 541.936L158.627 569.27L164.021 596.605L165.443 597.466C170.738 600.578 189.273 598.041 225.314 589.232C252.528 582.578 292.246 571.377 329.757 559.84C365.994 548.686 394.973 539.59 417.284 532.458C454.55 520.49 506.282 503.257 509.126 501.82C512.166 500.336 516.04 496.842 517.609 494.209L518.835 492.198L531.682 501.629C544.823 511.299 558.896 521.352 575.372 532.793C586.453 540.548 589.346 542.941 596.898 550.888L602.635 556.968V561.85C602.635 566.446 602.684 566.781 603.616 566.781C604.498 566.781 604.596 566.446 604.596 563.143C604.596 559.792 604.645 559.553 605.43 560.127C608.421 562.568 648.874 609.721 679.717 646.725C686.19 654.48 691.78 660.895 692.172 660.991C693.937 661.422 692.221 658.789 684.425 649.454C635.488 590.477 606.656 557.207 592.828 543.803C589.886 540.931 584.884 536.958 579.343 533.08C545.706 509.48 527.465 496.219 512.656 484.683C488.728 465.965 478.774 456.439 466.564 440.498C454.894 425.275 451.952 419.1 444.793 395.164C440.134 379.51 437.045 370.463 430.622 353.995C428.464 348.442 426.208 342.363 425.571 340.4L424.394 336.858L427.091 334.56C431.063 331.113 435.427 328.432 439.203 327.188C442.88 325.991 443.812 324.698 440.821 324.938C438.075 325.129 432.534 328.001 428.17 331.4C425.963 333.171 424.149 334.512 424.149 334.416C424.149 334.368 423.07 327.523 421.697 319.241C417.824 294.971 415.813 285.875 412.92 279.317C411.302 275.535 411.449 274.195 413.607 272.519C416.402 270.317 419.54 269.408 424.934 269.12C431.553 268.833 434.446 269.647 438.516 272.998C446.803 279.891 457.1 295.162 460.827 306.124C462.347 310.529 463.377 316.034 463.377 319.576C463.377 322.305 463.72 323.454 465.632 327.858C470.977 339.826 477.793 352.08 481.765 356.868L483.824 359.309L484.167 365.149C484.707 374.723 486.766 383.675 488.384 383.675C489.218 383.675 489.218 383.436 488.188 378.888C487.207 374.388 486.423 368.117 486.423 364.479V361.511L487.845 362.038C491.572 363.378 496.671 376.207 496.72 384.25C496.72 387.409 496.867 388.223 497.407 388.223C498.387 388.223 498.878 384.68 498.534 380.324C498.191 375.824 496.279 370.367 492.994 364.718C490.444 360.314 490.346 360.027 490.346 356.58C490.346 352.033 489.071 336.235 488.188 329.485C487.796 326.661 487.551 324.267 487.6 324.22C487.796 324.028 492.307 330.347 493.239 332.118C494.367 334.273 495.985 339.921 496.769 344.325C497.309 347.628 497.897 348.49 498.78 347.628C499.123 347.293 499.025 345.761 498.485 342.602C497.161 335.469 495.347 331.065 491.67 325.895C489.855 323.358 487.6 319.624 486.619 317.566C485.638 315.459 484.02 311.965 482.941 309.715C480.245 304.018 478.528 295.354 480.097 295.354C480.686 295.354 487.404 301.864 488.188 303.252C488.679 304.018 488.924 304.066 489.414 303.635C489.904 303.156 489.904 302.774 489.463 301.816C488.531 299.853 484.952 296.311 481.667 294.205C475.684 290.279 459.307 270.413 451.167 257.248C446.901 250.355 432.975 218.617 428.17 204.83C417.922 175.485 417.529 156.241 426.993 147.002C429.543 144.513 433.073 142.646 435.133 142.646C438.761 142.646 442.047 146.858 445.724 156.049C452.638 173.427 454.796 178.453 459.699 187.884C465.387 198.942 470.83 207.798 476.518 215.409L479.95 219.957L477.155 220.244C475.635 220.388 473.527 220.771 472.448 221.154C469.359 222.111 465.338 224.6 465.338 225.558C465.338 226.707 465.632 226.659 469.261 224.792C473.38 222.686 477.597 221.776 480.294 222.542C482.696 223.164 486.668 226.85 492.16 233.504C499.27 242.217 506.87 250.594 510.744 253.993C518.344 260.695 525.503 265.243 527.318 264.573C528.74 264.046 528.151 263.376 524.768 261.605C520.061 259.211 514.618 254.807 507.508 247.674C502.065 242.217 491.179 229.77 491.523 229.435C491.768 229.148 502.751 232.738 508.096 234.845C516.677 238.196 518.001 238.962 526.631 245.329C548.501 261.509 552.963 264.333 560.612 266.631C572.773 270.269 576.205 271.418 580.226 273.333C582.58 274.482 584.443 275.487 584.296 275.583C584.198 275.726 583.56 275.535 582.923 275.152C582.187 274.769 579.932 274.53 576.401 274.53C571.89 274.53 570.615 274.721 568.654 275.583C566.447 276.588 565.369 277.785 566.055 278.455C566.251 278.647 567.428 278.264 568.703 277.641C571.841 276.109 578.069 275.774 581.599 276.875C584.786 277.929 589.248 280.801 595.672 286.019C598.467 288.269 601.213 290.327 601.752 290.614C602.488 290.997 604.547 291.045 608.225 290.854C613.324 290.566 613.815 290.614 616.217 291.715C618.914 292.96 618.865 292.912 624.504 301.29C629.359 308.566 631.222 310.529 634.703 312.06C638.332 313.688 640.833 316.273 643.137 320.964C647.354 329.342 657.897 364.192 673.686 421.732C676.383 431.594 679.276 441.503 680.109 443.753C686.141 459.79 698.056 478.172 715.267 497.847C728.458 512.926 753.661 536 775.678 553.138C783.229 558.978 785.387 560.271 784.945 558.452C784.847 558.116 780.385 554.383 774.991 550.17C758.761 537.388 745.522 525.756 732.086 512.352C707.471 487.89 690.995 465.391 683.052 445.285C681.924 442.461 678.05 429.488 674.471 416.467C660.692 366.585 652.356 338.533 647.403 325.512C644.167 316.943 640.441 312.108 635.439 310.098C632.644 308.949 629.064 304.784 624.7 297.747C620.336 290.71 617.836 287.694 614.501 285.444C610.627 282.859 607.489 281.95 601.654 281.615L596.996 281.327L592.828 278.264C585.522 272.95 573.999 267.876 562.966 265.195C555.415 263.328 550.609 260.504 533.104 247.674C526.484 242.791 519.57 237.956 517.756 236.903C514.127 234.797 503.389 230.728 494.563 228.095C491.326 227.138 488.384 226.132 487.992 225.797C484.314 222.829 473.282 207.798 467.348 197.697C463.475 191.187 457.002 178.453 457.002 177.496C457.002 176.538 459.356 173.474 469.261 161.602C478.921 150.018 481.618 146.236 482.745 142.454C484.363 137.188 484.069 135.417 474.655 92.2855C469.8 70.1213 465.436 51.0208 464.995 49.8719C463.867 46.904 460.435 43.4094 457.394 42.069C454.845 40.9201 454.599 40.9201 435.672 40.7765C422.58 40.6807 415.617 40.7765 413.607 41.1595C411.988 41.4946 408.017 42.7871 404.731 44.0796C401.446 45.3721 398.602 46.4252 398.406 46.4252C398.21 46.4252 396.837 45.8508 395.366 45.1806C393.012 44.0317 392.326 43.936 389.334 44.1753L386 44.4625L384.97 41.2552C383.499 36.6117 382.47 35.2235 379.331 33.7395C374.722 31.5374 372.957 31.9683 363.052 37.4255C358.492 39.9148 347.704 45.8508 339.074 50.6379C330.444 55.3771 323.334 59.2068 323.236 59.1589C323.187 59.0631 320.784 49.3454 317.989 37.5213C315.145 25.6972 312.497 14.9262 312.105 13.5859C311.124 10.2828 307.594 5.68718 304.407 3.58086C300.043 0.708612 293.57 -0.679642 289.059 0.325645ZM297.051 7.98498C301.612 10.7136 298.277 -2.35512 340.251 177.591C361.287 267.78 378.547 342.363 378.645 343.32C378.792 345.474 377.566 347.341 375.36 348.347C373.938 349.017 373.349 349.017 371.731 348.586C370.652 348.251 369.475 347.485 368.985 346.767C368.544 346.049 352.215 277.115 329.954 181.565C308.967 91.3759 291.756 17.5113 291.756 17.3677C291.756 16.0273 277.536 25.1227 237.082 52.4091C191.872 82.9028 171.67 98.03 154.508 114.162C145.24 122.923 128.765 140.635 119.791 151.502C114.937 157.39 114.3 157.916 112.191 158.251C109.936 158.634 107.729 157.486 106.699 155.379C105.228 152.363 105.669 151.406 111.456 144.608C127.637 125.556 142.985 109.519 155.685 98.413C171.18 84.8176 199.276 64.6162 245.418 33.931C275.525 13.8731 284.45 8.08072 286.509 7.1233C289.5 5.73505 293.962 6.11801 297.051 7.98498ZM403.996 121.343C412.332 153.177 419.736 181.852 420.471 185.011C421.207 188.171 422.678 193.772 423.757 197.458C425.571 203.729 444.253 274.482 444.253 275.056C444.253 275.2 442.782 274.003 440.968 272.423C436.849 268.833 434.495 267.684 429.543 267.062C420.766 265.913 411.008 269.743 409.684 274.913C409.439 275.822 409.831 277.402 411.106 280.418C413.509 286.258 415.421 294.3 417.775 308.47C418.902 315.076 420.422 324.267 421.207 328.911C422.825 338.389 424.1 342.65 429.396 356.149C435.231 370.942 438.516 380.42 443.223 396.217C449.549 417.328 452.001 423.169 458.964 433.269C463.769 440.259 473.184 452.13 477.695 456.965L479.558 458.928L471.369 462.088C372.074 500.241 203.297 564.818 203.15 564.723C202.856 564.388 237.965 537.245 252.038 526.953C256.206 523.937 260.177 520.921 260.864 520.346C261.992 519.389 267.582 515.176 287.882 500.145C291.56 497.464 297.885 492.773 301.857 489.757C309.997 483.677 356.089 450.168 373.055 438.056C385.265 429.296 389.825 425.371 392.963 421.062C399.632 411.919 402.819 400.382 401.642 389.803C401.348 387.218 398.896 375.968 396.199 364.766C393.551 353.564 388.795 333.65 385.657 320.486C382.519 307.321 377.566 286.545 374.624 274.29C371.682 262.035 365.504 236.185 360.894 216.845C356.285 197.506 351.627 178.118 350.597 173.762C349.518 169.405 345.645 153.273 342.016 137.859C338.339 122.444 334.367 105.785 333.141 100.807C331.915 95.8758 330.983 91.711 331.081 91.6153C331.179 91.5196 344.076 84.7698 359.718 76.6317C383.892 63.9938 388.158 61.8875 388.452 62.6056C388.648 63.0364 395.66 89.4611 403.996 121.343ZM405.026 74.2861C405.026 74.3818 409.341 90.8015 414.538 110.764L424.1 147.145L423.119 148.438C420.52 151.98 418.265 159.496 418.265 164.475C418.265 165.719 418.167 166.629 418.02 166.533C417.922 166.39 412.724 146.906 406.497 123.258C400.269 99.5619 395.072 79.8391 394.973 79.4082C394.777 78.8338 395.856 78.1157 399.485 76.4403C403.898 74.4297 405.026 73.9988 405.026 74.2861ZM438.614 235.515C445.234 250.642 447.686 255.573 451.412 261.174C452.883 263.424 454.06 265.339 454.06 265.482C454.06 265.626 453.227 267.493 452.197 269.647C451.167 271.801 449.794 274.817 449.157 276.301C448.519 277.833 447.882 279.077 447.686 279.077C447.539 279.077 444.106 266.535 440.085 251.169C436.113 235.85 432.681 222.973 432.583 222.59C432.436 222.207 432.436 221.968 432.583 222.111C432.779 222.255 435.476 228.287 438.614 235.515ZM605.626 284.056C609.058 284.774 611.657 285.923 614.207 287.79L615.727 288.891H609.549C602.782 288.891 602.635 288.843 598.614 285.588C596.898 284.152 596.849 284.104 597.879 283.769C599.693 283.29 602.243 283.386 605.626 284.056ZM469.555 328.193C472.497 333.124 473.772 336.235 474.802 341.07C474.998 341.884 474.213 340.831 473.086 338.677C470.536 333.842 465.24 322.065 465.828 322.401C466.074 322.544 467.741 325.177 469.555 328.193ZM384.039 369.841C385.118 370.846 385.706 372.713 388.403 383.867C389.58 388.797 390.266 392.675 390.07 393.393C389.923 394.015 389.138 395.164 388.354 395.93C386.049 398.18 382.028 397.701 380.361 394.925C379.871 394.159 378.4 389.085 377.076 383.627C374.967 375.25 374.673 373.479 375.114 372.186C376.389 368.452 381.048 367.255 384.039 369.841ZM486.129 465.151C488.875 467.736 492.945 471.327 495.151 473.194C497.358 475.013 498.976 476.64 498.78 476.832C498.436 477.167 485.54 481.188 300.337 538.537C246.693 555.148 201.14 569.27 199.227 569.893C195.55 571.042 194.618 570.946 197.021 569.558C197.756 569.127 235.219 554.67 280.233 537.388C325.295 520.155 388.697 495.789 421.207 483.294C453.717 470.8 480.49 460.556 480.735 460.556C480.98 460.508 483.383 462.614 486.129 465.151Z" fill="black"/>
<path d="M380.263 78.3073C376.781 80.3179 375.654 81.6104 375.604 83.4295C375.604 85.8709 385.019 121.535 386 122.779C387.373 124.503 388.991 124.263 393.257 121.918C396.003 120.434 397.131 119.476 397.817 118.184L398.651 116.46L393.894 97.6471C390.217 83.238 388.844 78.5946 388.01 77.7329C386.392 76.0095 383.891 76.2489 380.263 78.3073ZM386.784 79.1211C387.618 80.0785 396.689 116.03 396.395 117.131C396.101 118.136 389.579 122.061 388.157 122.061C387.716 122.061 387.177 121.583 386.931 120.96C386.735 120.386 384.48 111.673 381.979 101.573C378.448 87.5943 377.468 83.0465 377.86 82.4242C378.645 81.2274 383.499 78.5946 384.97 78.5467C385.706 78.4988 386.49 78.786 386.784 79.1211Z" fill="black"/>
<path d="M598.075 62.9888C597.878 63.1803 597.731 64.2813 597.731 65.4302V67.4886H594.789C592.19 67.4886 591.847 67.5844 591.847 68.4461C591.847 69.3077 592.19 69.4035 594.789 69.4035H597.731V71.2226C597.731 73.5204 598.418 74.1906 600.771 74.1906H602.635V77.0628C602.635 79.6 602.733 79.9351 603.615 79.9351C604.498 79.9351 604.596 79.6 604.596 77.0628V74.1906H606.509C609.254 74.1906 609.549 73.5682 609.402 67.9195L609.254 62.9409L603.812 62.7973C600.87 62.7494 598.271 62.8452 598.075 62.9888ZM607.538 68.2067V71.797H603.615H599.693V68.2067V64.6164H603.615H607.538V68.2067Z" fill="black"/>
<path d="M132.884 68.4459C132.884 69.3076 133.227 69.4033 136.071 69.4033C138.915 69.4033 139.258 69.3076 139.258 68.4459C139.258 67.5842 138.915 67.4885 136.071 67.4885C133.227 67.4885 132.884 67.5842 132.884 68.4459Z" fill="black"/>
<path d="M153.478 68.4459C153.478 69.3554 153.821 69.4033 160.098 69.4033C166.374 69.4033 166.717 69.3554 166.717 68.4459C166.717 67.5364 166.374 67.4885 160.098 67.4885C153.821 67.4885 153.478 67.5364 153.478 68.4459Z" fill="black"/>
<path d="M482.5 68.4459C482.5 69.3554 482.843 69.4033 489.365 69.4033C495.886 69.4033 496.23 69.3554 496.23 68.4459C496.23 67.5364 495.886 67.4885 489.365 67.4885C482.843 67.4885 482.5 67.5364 482.5 68.4459Z" fill="black"/>
<path d="M509.567 68.3024C509.714 69.0683 510.499 69.1641 516.726 69.3077C523.444 69.4034 523.689 69.4034 523.689 68.446C523.689 67.5364 523.395 67.4886 516.53 67.4886C510.009 67.4886 509.42 67.5364 509.567 68.3024Z" fill="black"/>
<path d="M536.928 68.446C536.928 69.4034 537.173 69.4034 543.891 69.3077C550.119 69.1641 550.903 69.0683 551.05 68.3024C551.197 67.5364 550.609 67.4886 544.087 67.4886C537.222 67.4886 536.928 67.5364 536.928 68.446Z" fill="black"/>
<path d="M564.388 68.4459C564.388 69.3554 564.731 69.4033 571.253 69.4033C577.774 69.4033 578.117 69.3554 578.117 68.4459C578.117 67.5364 577.774 67.4885 571.253 67.4885C564.731 67.4885 564.388 67.5364 564.388 68.4459Z" fill="black"/>
<path d="M602.635 100.041C602.635 106.408 602.684 106.743 603.615 106.743C604.547 106.743 604.596 106.408 604.596 100.041C604.596 93.6739 604.547 93.3388 603.615 93.3388C602.684 93.3388 602.635 93.6739 602.635 100.041Z" fill="black"/>
<path d="M602.635 127.088C602.635 133.694 602.684 134.029 603.615 134.029C604.547 134.029 604.596 133.694 604.596 127.088C604.596 120.482 604.547 120.147 603.615 120.147C602.684 120.147 602.635 120.482 602.635 127.088Z" fill="black"/>
<path d="M602.635 154.135C602.635 160.501 602.684 160.836 603.615 160.836C604.547 160.836 604.596 160.501 604.596 154.135C604.596 147.768 604.547 147.433 603.615 147.433C602.684 147.433 602.635 147.768 602.635 154.135Z" fill="black"/>
<path d="M602.635 181.182C602.635 187.788 602.684 188.123 603.615 188.123C604.547 188.123 604.596 187.788 604.596 181.182C604.596 174.576 604.547 174.241 603.615 174.241C602.684 174.241 602.635 174.576 602.635 181.182Z" fill="black"/>
<path d="M602.635 208.229C602.635 214.596 602.684 214.931 603.615 214.931C604.547 214.931 604.596 214.596 604.596 208.229C604.596 201.862 604.547 201.527 603.615 201.527C602.684 201.527 602.635 201.862 602.635 208.229Z" fill="black"/>
<path d="M602.635 235.276C602.635 241.882 602.684 242.217 603.615 242.217C604.547 242.217 604.596 241.882 604.596 235.276C604.596 228.669 604.547 228.334 603.615 228.334C602.684 228.334 602.635 228.669 602.635 235.276Z" fill="black"/>
<path d="M602.635 262.323C602.635 268.69 602.684 269.025 603.615 269.025C604.547 269.025 604.596 268.69 604.596 262.323C604.596 255.956 604.547 255.621 603.615 255.621C602.684 255.621 602.635 255.956 602.635 262.323Z" fill="black"/>
<path d="M525.014 269.79C524.033 270.748 525.112 271.466 529.966 273.046C539.332 276.157 544.382 278.455 547.128 280.801C550.217 283.434 551.639 286.019 553.356 292.05C556.347 302.63 557.327 305.789 561.054 317.135C563.211 323.693 566.742 333.746 568.9 339.395C573.705 351.889 581.06 371.564 581.06 371.803C581.06 371.851 581.403 371.947 581.796 371.947C582.188 371.947 582.531 371.612 582.531 371.181C582.531 370.319 578.952 360.649 571.842 342.028C565.369 325.081 559.632 307.943 556.052 294.875C553.503 285.444 552.179 282.859 548.109 279.365C544.873 276.54 541.783 275.008 533.987 272.232C526.779 269.695 525.504 269.312 525.014 269.79Z" fill="black"/>
<path d="M605.282 312.778C604.939 313.64 613.962 368.452 615.825 376.973C616.609 380.372 617.737 385.638 618.326 388.606C619.404 393.584 620.189 395.212 621.121 394.255C621.268 394.111 620.826 391.43 620.14 388.366C618.424 380.707 613.128 349.974 608.96 323.358C608.126 317.805 607.195 313.018 606.95 312.683C606.263 311.917 605.626 311.965 605.282 312.778Z" fill="black"/>
<path d="M638.43 334.847C638.43 335.038 638.97 337.241 639.607 339.778C640.293 342.315 642.843 353.038 645.295 363.569C651.228 389.085 653.582 398.419 654.268 399.09C654.612 399.425 655.102 399.52 655.494 399.281C656.034 398.946 655.788 397.462 654.219 391.287C653.141 387.074 650.198 374.963 647.698 364.288C641.029 335.613 640.833 334.895 639.558 334.703C638.921 334.608 638.43 334.655 638.43 334.847Z" fill="black"/>
<path d="M109.494 510.581C109.053 511.73 111.26 513.645 122.341 521.735C128.029 525.9 133.374 530.064 134.257 531.07C136.218 533.272 138.719 538.107 140.484 543.085C141.955 547.394 142.446 548.064 143.279 547.25C144.113 546.436 142.642 541.697 139.749 535.857C136.905 530.16 134.551 527.766 125.038 521.065C121.655 518.719 116.997 515.176 114.643 513.309C112.289 511.395 110.23 509.815 110.083 509.815C109.936 509.815 109.691 510.15 109.494 510.581Z" fill="black"/>
<path d="M123.665 556.537C121.213 558.212 119.399 563.478 118.075 573.004C116.555 583.919 116.555 617.093 118.075 640.023C119.448 660.177 119.448 660.129 120.674 660.129C121.458 660.129 121.606 659.794 121.606 657.544C121.606 656.108 121.409 652.853 121.115 650.268C120.184 641.029 119.154 615.466 119.154 601.775C119.154 576.02 120.821 562.712 124.597 558.595C125.332 557.781 125.823 556.824 125.675 556.441C125.332 555.579 125.038 555.579 123.665 556.537Z" fill="black"/>
<path d="M602.635 586.887C602.635 593.254 602.684 593.589 603.615 593.589C604.547 593.589 604.596 593.254 604.596 586.887C604.596 580.52 604.547 580.185 603.615 580.185C602.684 580.185 602.635 580.52 602.635 586.887Z" fill="black"/>
<path d="M602.635 610.344C602.635 613.359 602.733 613.695 603.615 613.695C604.498 613.695 604.596 613.359 604.596 610.344C604.596 607.328 604.498 606.993 603.615 606.993C602.733 606.993 602.635 607.328 602.635 610.344Z" fill="black"/>
</svg>
