<svg width="500" height="500" viewBox="0 0 500 500" fill="none" xmlns="http://www.w3.org/2000/svg">
<path d="M303 120.7C296 132.48 289 145.08 281.29 155.7" stroke="black" stroke-linecap="round" stroke-linejoin="round"/>
<path d="M338.38 63.57L306.48 115" stroke="black" stroke-linecap="round" stroke-linejoin="round"/>
<path d="M346.17 51C344.79 53.23 343.4 55.46 342.02 57.7" stroke="black" stroke-linecap="round" stroke-linejoin="round"/>
<path d="M327.75 167.27L317.75 173.92" stroke="black" stroke-linecap="round" stroke-linejoin="round"/>
<path d="M376.65 134.51C361.91 144.78 347.15 155 332.2 164.3" stroke="black" stroke-linecap="round" stroke-linejoin="round"/>
<path d="M431.75 98C414.87 108 398.26 119.47 381.68 131" stroke="black" stroke-linecap="round" stroke-linejoin="round"/>
<path d="M199.72 125C202.96 130.71 206.18 136.45 209.53 142" stroke="black" stroke-linecap="round" stroke-linejoin="round"/>
<path d="M153.83 51C168 73 182 96.45 196.05 119.08" stroke="black" stroke-linecap="round" stroke-linejoin="round"/>
<path d="M179.29 172L182.23 174" stroke="black" stroke-linecap="round" stroke-linejoin="round"/>
<path d="M103.81 122C127.39 138.11 150.96 154.26 174.81 169" stroke="black" stroke-linecap="round" stroke-linejoin="round"/>
<path d="M77.3203 104C84.6536 108.927 91.987 113.897 99.3203 118.91" stroke="black" stroke-linecap="round" stroke-linejoin="round"/>
<path d="M68.25 98L73.44 101.46" stroke="black" stroke-linecap="round" stroke-linejoin="round"/>
<path d="M250 50.23V104" stroke="black" stroke-linecap="round" stroke-linejoin="round"/>
<path d="M250 36.08V44.35" stroke="black" stroke-linecap="round" stroke-linejoin="round"/>
<path d="M197 379.3C204 367.52 211 354.92 218.71 344.3" stroke="black" stroke-linecap="round" stroke-linejoin="round"/>
<path d="M161.62 436.43L193.52 385" stroke="black" stroke-linecap="round" stroke-linejoin="round"/>
<path d="M153.83 449C155.21 446.77 156.6 444.54 157.98 442.3" stroke="black" stroke-linecap="round" stroke-linejoin="round"/>
<path d="M172.25 332.73L182.25 326.08" stroke="black" stroke-linecap="round" stroke-linejoin="round"/>
<path d="M123.35 365.49C138.09 355.22 152.85 345 167.8 335.7" stroke="black" stroke-linecap="round" stroke-linejoin="round"/>
<path d="M68.25 402.05C85.13 392 101.74 380.53 118.32 369" stroke="black" stroke-linecap="round" stroke-linejoin="round"/>
<path d="M290.37 357.7C286.18 350.44 281.97 343.18 280.29 340.42" stroke="black" stroke-linecap="round" stroke-linejoin="round"/>
<path d="M346.17 449C337.08 434.86 328.06 420.16 319.05 405.45" stroke="black" stroke-linecap="round" stroke-linejoin="round"/>
<path d="M320.71 328L317.77 326" stroke="black" stroke-linecap="round" stroke-linejoin="round"/>
<path d="M396.19 378C372.61 361.89 349.04 345.74 325.19 331" stroke="black" stroke-linecap="round" stroke-linejoin="round"/>
<path d="M422.68 396C415.347 391.073 408.014 386.103 400.68 381.09" stroke="black" stroke-linecap="round" stroke-linejoin="round"/>
<path d="M431.75 402.05L426.56 398.59" stroke="black" stroke-linecap="round" stroke-linejoin="round"/>
<path d="M250 388.85V358.48" stroke="black" stroke-linecap="round" stroke-linejoin="round"/>
<path d="M250 449.77V396" stroke="black" stroke-linecap="round" stroke-linejoin="round"/>
<path d="M250 463.92V455.65" stroke="black" stroke-linecap="round" stroke-linejoin="round"/>
<path d="M354.55 85.55V76.05C354.549 75.3335 354.689 74.6237 354.962 73.9613C355.236 73.299 355.637 72.697 356.143 72.1898C356.649 71.6827 357.25 71.2804 357.912 71.0058C358.574 70.7313 359.284 70.59 360 70.59H374" stroke="black" stroke-linecap="round" stroke-linejoin="round"/>
<path d="M354.55 92.86V90.17" stroke="black" stroke-linecap="round" stroke-linejoin="round"/>
<path d="M373 105.87H360C359.282 105.87 358.571 105.728 357.908 105.453C357.245 105.178 356.643 104.775 356.136 104.267C355.629 103.759 355.227 103.156 354.953 102.493C354.679 101.829 354.539 101.118 354.54 100.4V96.1" stroke="black" stroke-linecap="round" stroke-linejoin="round"/>
<path d="M388.34 86.35V100.4C388.34 101.851 387.764 103.242 386.738 104.268C385.712 105.294 384.321 105.87 382.87 105.87H376.07" stroke="black" stroke-linecap="round" stroke-linejoin="round"/>
<path d="M382.87 70.59C383.588 70.5887 384.299 70.729 384.963 71.0028C385.626 71.2766 386.229 71.6786 386.737 72.1857C387.245 72.6928 387.649 73.2952 387.924 73.9583C388.199 74.6214 388.34 75.3322 388.34 76.05V84.05" stroke="black" stroke-linecap="round" stroke-linejoin="round"/>
<path d="M376.07 70.59H380.03" stroke="black" stroke-linecap="round" stroke-linejoin="round"/>
<path d="M371.44 106.38V116.13" stroke="black" stroke-linecap="round" stroke-linejoin="round"/>
<path d="M371.44 96.93V102.23" stroke="black" stroke-linecap="round" stroke-linejoin="round"/>
<path d="M371.44 91.18V93.62" stroke="black" stroke-linecap="round" stroke-linejoin="round"/>
<path d="M367.52 114.7L371.44 118.55L375.36 114.7" stroke="black" stroke-linecap="round" stroke-linejoin="round"/>
<path d="M85.2901 161.77V171.28C85.2901 171.998 85.1486 172.709 84.8735 173.372C84.5985 174.035 84.1955 174.637 83.6874 175.144C83.1793 175.652 82.5762 176.053 81.9126 176.327C81.249 176.601 80.538 176.741 79.8201 176.74H65.8701" stroke="black" stroke-linecap="round" stroke-linejoin="round"/>
<path d="M85.29 154.47V157.16" stroke="black" stroke-linecap="round" stroke-linejoin="round"/>
<path d="M66.8701 141.46H79.8201C81.2708 141.46 82.6622 142.036 83.688 143.062C84.7138 144.088 85.2901 145.479 85.2901 146.93V151.22" stroke="black" stroke-linecap="round" stroke-linejoin="round"/>
<path d="M51.5001 161V147C51.4894 146.273 51.6241 145.551 51.8962 144.877C52.1683 144.202 52.5724 143.589 53.0847 143.073C53.5971 142.557 54.2073 142.148 54.8797 141.871C55.552 141.594 56.2729 141.455 57.0001 141.46H63.8001" stroke="black" stroke-linecap="round" stroke-linejoin="round"/>
<path d="M57 176.74C56.2827 176.741 55.5721 176.601 54.909 176.327C54.246 176.053 53.6436 175.651 53.1363 175.144C52.629 174.636 52.2269 174.034 51.953 173.371C51.6791 172.708 51.5387 171.997 51.54 171.28V163.22" stroke="black" stroke-linecap="round" stroke-linejoin="round"/>
<path d="M63.7603 176.74H59.8003" stroke="black" stroke-linecap="round" stroke-linejoin="round"/>
<path d="M68.3901 140.95V131.2" stroke="black" stroke-linecap="round" stroke-linejoin="round"/>
<path d="M68.3901 150.4V145.1" stroke="black" stroke-linecap="round" stroke-linejoin="round"/>
<path d="M68.3901 156.15V153.71" stroke="black" stroke-linecap="round" stroke-linejoin="round"/>
<path d="M72.3102 132.63L68.3902 128.78L64.4702 132.63" stroke="black" stroke-linecap="round" stroke-linejoin="round"/>
<path d="M287.33 396.89H272.82C271.372 396.89 269.983 396.315 268.959 395.291C267.935 394.267 267.36 392.878 267.36 391.43V377.48" stroke="black" stroke-linecap="round" stroke-linejoin="round"/>
<path d="M294.63 396.89H291.94" stroke="black" stroke-linecap="round" stroke-linejoin="round"/>
<path d="M312.64 378.48V391.43C312.64 392.878 312.065 394.267 311.041 395.291C310.017 396.315 308.628 396.89 307.18 396.89H297.88" stroke="black" stroke-linecap="round" stroke-linejoin="round"/>
<path d="M288.12 363.11H307.18C308.628 363.11 310.017 363.685 311.041 364.709C312.065 365.733 312.64 367.122 312.64 368.57V375.37" stroke="black" stroke-linecap="round" stroke-linejoin="round"/>
<path d="M267.36 368.57C267.36 367.122 267.935 365.733 268.959 364.709C269.983 363.685 271.372 363.11 272.82 363.11H285.88" stroke="black" stroke-linecap="round" stroke-linejoin="round"/>
<path d="M267.36 375.37V371.41" stroke="black" stroke-linecap="round" stroke-linejoin="round"/>
<path d="M281.96 386.57L298.04 380L281.96 373.43V383.16" stroke="black" stroke-linecap="round" stroke-linejoin="round"/>
<path opacity="0.4" d="M388.73 265.29C390.5 276.29 383.99 288.53 375.1 286.58C374.033 283.617 373.298 280.545 372.91 277.42C372.42 272.26 380.36 259.3 380.36 259.3C380.36 259.3 380.36 250 381.07 239.18L359 227L363.12 196.54L377.82 203.46L375.54 192.56C375.54 192.56 336.77 184.88 332.32 176.05C340.473 174.374 348.303 171.396 355.51 167.23C358.68 165.43 362.3 166.52 368.57 168.42C369.57 172.42 371.65 176.77 382.1 178.15C382.1 178.15 385.01 210.78 391.74 219.49C391.77 219.53 386.49 251.31 388.73 265.29Z" fill="black"/>
<path opacity="0.4" d="M428.83 230.18C429.229 230.648 429.565 231.165 429.83 231.72C426.2 226.97 422.59 229.22 422 231.35C421.41 233.48 430.7 281.24 428.11 277.61C425.52 273.98 418.72 244.38 417.11 232.15C415.5 219.92 409.69 221.64 408.91 219.33C408.41 217.84 405.44 201.11 401.34 188.53C405.28 198.64 408.82 210.94 410.8 214.9C414.36 221.9 424.05 225.5 428.83 230.18Z" fill="black"/>
<path opacity="0.4" d="M467.57 355.65C464.4 351.2 462.47 345.65 460.4 341.18C456.84 333.46 457.63 321.99 457.63 321.99C457.63 321.99 451.3 299.84 446.75 290.34C442.58 281.65 434.94 243.77 430.9 233.76C435.83 244.08 446.28 272.81 451.67 284.47C461.92 306.64 462.08 334.31 467.57 355.65Z" fill="black"/>
<path d="M372.91 277.42C372.42 272.26 380.35 259.3 380.35 259.3C380.35 259.3 380.35 250 381.06 239.18L359 227L363.12 196.54L377.82 203.46L375.53 192.56C375.53 192.56 336.77 184.88 332.32 176.05C340.473 174.372 348.303 171.394 355.51 167.23C361.42 163.87 368.89 170.55 392.12 173.88C398.96 174.88 407.34 207.88 410.83 214.88C414.32 221.88 424.01 225.48 428.83 230.16C431.89 233.16 445.3 270.69 451.67 284.45C462.25 307.33 462.08 336.08 468.11 357.68L411.84 354.49C411.84 354.49 374.88 298.28 372.91 277.42Z" stroke="black" stroke-linecap="round" stroke-linejoin="round"/>
<path d="M382.12 231.35C382.47 222.16 375.56 192.6 375.56 192.6C375.56 192.6 376.56 182.34 382.13 181.6" stroke="black" stroke-linecap="round" stroke-linejoin="round"/>
<path d="M375.51 268.47C375.51 268.47 379.51 257.54 386.62 252.78" stroke="black" stroke-linecap="round" stroke-linejoin="round"/>
<path d="M385.06 222.41C382.84 224.89 380.35 235.41 380.35 259.3" stroke="black" stroke-linecap="round" stroke-linejoin="round"/>
<path d="M398.29 222.34C398.29 222.34 409.94 220.2 413.68 222.8C419.59 226.91 414.08 230.18 422.42 260.04C426.48 274.57 429.87 281.81 429.87 281.81" stroke="black" stroke-linecap="round" stroke-linejoin="round"/>
<path d="M419.59 225.78C419.59 225.78 426.91 226.91 428.83 230.18" stroke="black" stroke-linecap="round" stroke-linejoin="round"/>
<path d="M434.89 243C437.71 250 443.89 278.87 446.75 287.57" stroke="black" stroke-linecap="round" stroke-linejoin="round"/>
<path opacity="0.4" d="M111.27 265.29C109.5 276.29 116.01 288.53 124.9 286.58C125.967 283.617 126.702 280.545 127.09 277.42C127.58 272.26 119.64 259.3 119.64 259.3C119.64 259.3 119.64 250 118.93 239.18L141 227L136.88 196.54L122.18 203.46L124.46 192.56C124.46 192.56 163.23 184.88 167.68 176.05C159.527 174.374 151.696 171.396 144.49 167.23C141.32 165.43 137.7 166.52 131.43 168.42C130.43 172.42 128.35 176.77 117.9 178.15C117.9 178.15 114.99 210.78 108.26 219.49C108.23 219.53 113.51 251.31 111.27 265.29Z" fill="black"/>
<path opacity="0.4" d="M71.1699 230.18C70.7712 230.648 70.435 231.165 70.1699 231.72C73.7999 226.97 77.4099 229.22 77.9999 231.35C78.5899 233.48 69.2999 281.24 71.8899 277.61C74.4799 273.98 81.2799 244.38 82.8899 232.15C84.4999 219.92 90.3099 221.64 91.0899 219.33C91.5899 217.84 94.5599 201.11 98.6599 188.53C94.7199 198.64 91.1799 210.94 89.1999 214.9C85.6399 221.9 75.9999 225.5 71.1699 230.18Z" fill="black"/>
<path opacity="0.4" d="M32.4302 355.65C35.6002 351.2 37.5302 345.65 39.6002 341.18C43.1602 333.46 42.3702 321.99 42.3702 321.99C42.3702 321.99 48.7002 299.84 53.2502 290.34C57.4202 281.65 65.0602 243.77 69.1002 233.76C64.1702 244.08 53.7202 272.81 48.3302 284.47C38.0802 306.64 37.9202 334.31 32.4302 355.65Z" fill="black"/>
<path d="M127.09 277.42C127.58 272.26 119.65 259.3 119.65 259.3C119.65 259.3 119.65 250 118.94 239.18L141 227L136.88 196.54L122.18 203.46L124.47 192.56C124.47 192.56 163.23 184.88 167.68 176.05C159.527 174.372 151.697 171.394 144.49 167.23C138.58 163.87 131.11 170.55 107.88 173.88C101.04 174.88 92.6601 207.88 89.1701 214.88C85.6801 221.88 75.9901 225.48 71.1701 230.16C68.1101 233.16 54.7001 270.69 48.3301 284.45C37.7501 307.33 37.9301 336.08 31.8901 357.68L88.1601 354.49C88.1601 354.49 125.12 298.28 127.09 277.42Z" stroke="black" stroke-linecap="round" stroke-linejoin="round"/>
<path d="M117.88 231.35C117.53 222.16 124.44 192.6 124.44 192.6C124.44 192.6 123.44 182.34 117.87 181.6" stroke="black" stroke-linecap="round" stroke-linejoin="round"/>
<path d="M124.49 268.47C124.49 268.47 120.49 257.54 113.38 252.78" stroke="black" stroke-linecap="round" stroke-linejoin="round"/>
<path d="M114.94 222.41C117.16 224.89 119.65 235.41 119.65 259.3" stroke="black" stroke-linecap="round" stroke-linejoin="round"/>
<path d="M101.71 222.34C101.71 222.34 90.0599 220.2 86.3199 222.8C80.4099 226.91 85.9199 230.18 77.5799 260.04C73.5199 274.57 70.1299 281.81 70.1299 281.81" stroke="black" stroke-linecap="round" stroke-linejoin="round"/>
<path d="M80.4099 225.78C80.4099 225.78 73.0899 226.91 71.1699 230.18" stroke="black" stroke-linecap="round" stroke-linejoin="round"/>
<path d="M65.11 243C62.29 250 56.11 278.87 53.25 287.57" stroke="black" stroke-linecap="round" stroke-linejoin="round"/>
<path d="M164.72 174.33H181.72C181.796 174.33 181.872 174.345 181.942 174.374C182.012 174.403 182.076 174.446 182.13 174.5C182.184 174.554 182.227 174.618 182.256 174.688C182.285 174.758 182.3 174.834 182.3 174.91V178.19H164.14V174.91C164.14 174.834 164.155 174.758 164.184 174.688C164.213 174.618 164.256 174.554 164.31 174.5C164.364 174.446 164.428 174.403 164.498 174.374C164.569 174.345 164.644 174.33 164.72 174.33Z" fill="black" stroke="black" stroke-linecap="round" stroke-linejoin="round"/>
<path d="M144.72 174.33H161.72C161.796 174.33 161.872 174.345 161.942 174.374C162.012 174.403 162.076 174.446 162.13 174.5C162.184 174.554 162.227 174.618 162.256 174.688C162.285 174.758 162.3 174.834 162.3 174.91V178.19H144.14V174.91C144.14 174.834 144.155 174.758 144.184 174.688C144.213 174.618 144.256 174.554 144.31 174.5C144.364 174.446 144.428 174.403 144.498 174.374C144.569 174.345 144.644 174.33 144.72 174.33Z" fill="black" stroke="black" stroke-linecap="round" stroke-linejoin="round"/>
<path d="M367.47 176.09H132.53C127.035 176.09 122.58 180.545 122.58 186.04V299.96C122.58 305.455 127.035 309.91 132.53 309.91H367.47C372.965 309.91 377.42 305.455 377.42 299.96V186.04C377.42 180.545 372.965 176.09 367.47 176.09Z" fill="black" stroke="black" stroke-linecap="round" stroke-linejoin="round"/>
<path d="M368.88 180.2H131.12V305.8H368.88V180.2Z" fill="black"/>
<mask id="mask0_138_338" style="mask-type:luminance" maskUnits="userSpaceOnUse" x="131" y="180" width="238" height="126">
<path d="M368.88 180.2H131.12V305.8H368.88V180.2Z" fill="white"/>
</mask>
<g mask="url(#mask0_138_338)">
<path opacity="0.1" d="M334.32 180.2C314 213 265.63 274.88 179.26 297.26C179.26 297.26 257.26 260.67 289.66 194.61C288.53 195.83 217.85 272.17 131.12 277.12V180.2H334.32Z" fill="black"/>
</g>
<path d="M368.88 180.2H131.12V305.8H368.88V180.2Z" stroke="black" stroke-linecap="round" stroke-linejoin="round"/>
<path d="M128.45 240.52C128.45 240.8 128.367 241.073 128.212 241.306C128.058 241.539 127.838 241.72 127.58 241.829C127.322 241.937 127.038 241.967 126.764 241.914C126.489 241.862 126.236 241.73 126.036 241.534C125.837 241.339 125.699 241.088 125.641 240.815C125.583 240.541 125.607 240.257 125.71 239.997C125.812 239.737 125.99 239.513 126.219 239.354C126.449 239.194 126.72 239.106 127 239.1C127.189 239.096 127.377 239.13 127.552 239.199C127.728 239.269 127.888 239.373 128.023 239.505C128.158 239.637 128.266 239.795 128.339 239.97C128.412 240.144 128.45 240.331 128.45 240.52Z" fill="black" stroke="black" stroke-linecap="round" stroke-linejoin="round"/>
<path d="M129.3 233.18C129.302 233.629 129.171 234.069 128.923 234.444C128.674 234.818 128.32 235.111 127.906 235.284C127.491 235.458 127.035 235.504 126.594 235.418C126.153 235.331 125.747 235.116 125.429 234.799C125.11 234.482 124.893 234.077 124.805 233.637C124.716 233.196 124.761 232.739 124.932 232.324C125.104 231.908 125.395 231.553 125.768 231.303C126.142 231.053 126.581 230.92 127.03 230.92C127.631 230.92 128.206 231.158 128.632 231.581C129.057 232.005 129.298 232.58 129.3 233.18Z" fill="black" stroke="black" stroke-linecap="round" stroke-linejoin="round"/>
<path opacity="0.4" d="M421.13 445C417.3 380.47 402.44 360.83 386.13 346.77C383.66 344.63 358.64 319.65 355.52 313.33C347.4 296.86 343.33 280.76 334.85 262.99C332.77 258.64 333.04 241.2 332.3 236.66C330.03 222.76 325.76 213.76 333.2 212.49C330.02 214.18 337.75 237.58 337.15 244.49C336.55 251.4 345.66 244.43 348.43 252.67C348.43 252.67 338.93 254.87 338.93 261.35C338.93 267.83 353.57 299.68 357.33 308.97C361.09 318.26 375.33 328.97 385.22 332.71C395.11 336.45 413.04 359.61 414.06 367.92C415.08 376.23 415.7 384 421 396C425.9 407 428 435.35 421.13 445Z" fill="black"/>
<path opacity="0.4" d="M389.79 276.89C389 275.11 384.05 272.14 381.07 272.03C378.09 271.92 373.77 272.34 370.6 269.42C367.43 266.5 359.21 254.77 358.55 253.82C361.551 257.455 364.785 260.892 368.23 264.11C373.4 268.89 381.73 269.42 381.73 269.42C383.709 268.411 385.866 267.799 388.08 267.62C391.53 269.02 388.72 271.15 388.72 271.15C388.72 271.15 390.58 278.67 389.79 276.89Z" fill="black"/>
<path d="M486 394.57C477.63 381.08 478.61 368.57 475.33 363.38C471.33 357.09 461.41 340.38 459.48 329.11" stroke="black" stroke-linecap="round" stroke-linejoin="round"/>
<path d="M390.42 267.46C390.42 267.46 385.09 267.46 381.73 269.46C381.73 269.46 373.39 268.93 368.23 264.15C364.763 260.917 361.513 257.46 358.5 253.8C358.5 253.8 351.64 213.41 336.64 212.37C324.64 211.54 329.76 220.99 332.32 236.65C333.06 241.19 332.79 258.65 334.87 262.98C343.35 280.75 347.42 296.85 355.54 313.32C358.66 319.64 383.68 344.62 386.15 346.76C403.63 361.84 419.45 383.35 421.79 459.82" stroke="black" stroke-linecap="round" stroke-linejoin="round"/>
<path d="M381.73 269.42C384.604 270.29 387.081 272.141 388.73 274.65" stroke="black" stroke-linecap="round" stroke-linejoin="round"/>
<path d="M350 252.78C350 252.78 338.13 251.06 335.49 259.3" stroke="black" stroke-linecap="round" stroke-linejoin="round"/>
<path opacity="0.4" d="M78.8702 445C82.7002 380.47 97.5602 360.83 113.87 346.77C116.34 344.63 141.36 319.65 144.48 313.33C152.6 296.86 156.67 280.76 165.15 262.99C167.23 258.64 166.96 241.2 167.7 236.66C169.97 222.76 174.24 213.76 166.8 212.49C169.98 214.18 162.25 237.58 162.85 244.49C163.45 251.4 154.34 244.43 151.57 252.67C151.57 252.67 161.07 254.87 161.07 261.35C161.07 267.83 146.43 299.68 142.67 308.97C138.91 318.26 124.67 328.97 114.78 332.71C104.89 336.45 86.9602 359.61 85.9402 367.92C84.9202 376.23 84.3001 384 79.0001 396C74.1001 407 72.0002 435.35 78.8702 445Z" fill="black"/>
<path opacity="0.4" d="M110.21 276.89C111 275.11 115.95 272.14 118.93 272.03C121.91 271.92 126.23 272.34 129.4 269.42C132.57 266.5 140.79 254.77 141.4 253.82C138.399 257.455 135.165 260.892 131.72 264.11C126.55 268.89 118.22 269.42 118.22 269.42C116.241 268.411 114.084 267.799 111.87 267.62C108.42 269.02 111.23 271.15 111.23 271.15C111.23 271.15 109.42 278.67 110.21 276.89Z" fill="black"/>
<path d="M14 394.57C22.37 381.08 21.39 368.57 24.67 363.38C28.67 357.09 38.59 340.38 40.52 329.11" stroke="black" stroke-linecap="round" stroke-linejoin="round"/>
<path d="M109.58 267.46C109.58 267.46 114.91 267.46 118.27 269.46C118.27 269.46 126.61 268.93 131.77 264.15C135.237 260.917 138.487 257.46 141.5 253.8C141.5 253.8 148.36 213.41 163.36 212.37C175.36 211.54 170.24 220.99 167.68 236.65C166.94 241.19 167.21 258.65 165.13 262.98C156.65 280.75 152.58 296.85 144.46 313.32C141.34 319.64 116.32 344.62 113.85 346.76C96.37 361.84 80.55 383.35 78.21 459.82" stroke="black" stroke-linecap="round" stroke-linejoin="round"/>
<path d="M118.27 269.42C115.396 270.29 112.919 272.141 111.27 274.65" stroke="black" stroke-linecap="round" stroke-linejoin="round"/>
<path d="M150 252.78C150 252.78 161.87 251.06 164.51 259.3" stroke="black" stroke-linecap="round" stroke-linejoin="round"/>
<path d="M223.52 132.74C230.516 125.747 240.003 121.819 249.895 121.819C259.787 121.819 269.274 125.747 276.27 132.74" stroke="black" stroke-width="3" stroke-linecap="round" stroke-linejoin="round"/>
<path d="M232.28 141.5C236.954 136.833 243.289 134.211 249.895 134.211C256.5 134.211 262.836 136.833 267.51 141.5" stroke="black" stroke-width="3" stroke-linecap="round" stroke-linejoin="round"/>
<path d="M240.54 149.77C241.768 148.54 243.226 147.565 244.831 146.899C246.437 146.234 248.157 145.891 249.895 145.891C251.633 145.891 253.354 146.234 254.959 146.899C256.564 147.565 258.022 148.54 259.25 149.77" stroke="black" stroke-width="3" stroke-linecap="round" stroke-linejoin="round"/>
<path d="M249.9 162.86C251.966 162.86 253.64 161.186 253.64 159.12C253.64 157.054 251.966 155.38 249.9 155.38C247.835 155.38 246.16 157.054 246.16 159.12C246.16 161.186 247.835 162.86 249.9 162.86Z" fill="black"/>
</svg>
