<svg width="500" height="500" viewBox="0 0 500 500" fill="none" xmlns="http://www.w3.org/2000/svg">
<path d="M83.6799 144.51C67.2499 282.39 226.79 416.15 350.23 317.11C405.96 272.4 445.94 129.43 351.64 108.49C297.56 96.4901 239.43 144.49 187.88 125.6C163.1 116.53 150.41 80.8401 121.61 84.6001C94.5699 88.1901 86.4199 121.53 83.6799 144.51Z" fill="#000000"/>
<path opacity="0.9" d="M83.6799 144.51C67.2499 282.39 226.79 416.15 350.23 317.11C405.96 272.4 445.94 129.43 351.64 108.49C297.56 96.4901 239.43 144.49 187.88 125.6C163.1 116.53 150.41 80.8401 121.61 84.6001C94.5699 88.1901 86.4199 121.53 83.6799 144.51Z" fill="#FFFFFF"/>
<path d="M250 427.56C357.082 427.56 443.89 422.492 443.89 416.24C443.89 409.988 357.082 404.92 250 404.92C142.917 404.92 56.1099 409.988 56.1099 416.24C56.1099 422.492 142.917 427.56 250 427.56Z" fill="#FFFFFF"/>
<path d="M130.36 194.26C129.48 196.26 128.51 198.42 127.66 200.53C126.81 202.64 125.93 204.81 125.16 206.97C123.58 211.181 122.313 215.502 121.37 219.9L121.08 221.5L120.98 222.1C120.98 222.27 120.98 222.49 120.92 222.69C120.882 223.663 120.902 224.639 120.98 225.61C121.17 227.72 121.51 229.98 121.98 232.24C122.82 236.77 123.89 241.44 124.98 246.04L119.85 248.04C117.458 243.681 115.422 239.136 113.76 234.45C112.884 232.011 112.176 229.515 111.64 226.98C111.339 225.577 111.152 224.153 111.08 222.72C111.08 222.32 111.08 221.94 111.08 221.51C111.08 221.08 111.08 220.6 111.15 220.32L111.35 218.32C111.648 215.744 112.106 213.189 112.72 210.67C113.28 208.17 114 205.74 114.72 203.34C115.44 200.94 116.34 198.58 117.29 196.26C117.76 195.1 118.29 193.95 118.75 192.8C119.21 191.65 119.75 190.55 120.39 189.32L130.36 194.26Z" fill="#FFB573"/>
<path d="M124.71 244.69L128.61 248.5L120.1 252.5C120.1 252.5 118.04 248.89 119.47 245.63L124.71 244.69Z" fill="#FFB573"/>
<path d="M131.76 254.17L124.57 257.11L120.11 252.46L128.61 248.5L131.76 254.17Z" fill="#FFB573"/>
<path opacity="0.4" d="M277.41 250.07C263.261 248.481 249.9 242.733 239.017 233.553C228.135 224.372 220.218 212.171 216.269 198.491C212.319 184.812 212.514 170.269 216.829 156.701C221.144 143.132 229.384 131.148 240.509 122.262C251.634 113.376 265.144 107.988 279.33 106.78C293.517 105.571 307.744 108.595 320.211 115.471C332.679 122.346 342.829 132.764 349.377 145.406C355.925 158.049 358.578 172.35 357 186.5C355.951 195.901 353.06 205.004 348.492 213.288C343.924 221.571 337.769 228.874 330.377 234.777C322.986 240.681 314.504 245.07 305.415 247.694C296.327 250.318 286.81 251.125 277.41 250.07Z" fill="#FFFFFF"/>
<path opacity="0.4" d="M329.79 121.79L220.29 209.28C219.83 208.28 219.38 207.28 218.96 206.28C216.215 199.75 214.459 192.848 213.75 185.8L308.33 110.23C316.095 112.82 323.355 116.731 329.79 121.79Z" fill="#FFFFFF"/>
<path opacity="0.4" d="M355.06 160.12L252.11 242.37C242.33 237.272 233.854 229.99 227.34 221.09L339.75 131.27C346.996 139.587 352.234 149.458 355.06 160.12Z" fill="#FFFFFF"/>
<path d="M204.39 151L203.44 150.68C205.085 145.825 207.153 141.124 209.62 136.63L210.49 137.11C208.056 141.553 206.015 146.201 204.39 151ZM216.53 127.66L215.72 127.07C223.938 115.958 234.694 106.972 247.09 100.86L247.54 101.76C235.284 107.808 224.652 116.699 216.53 127.69V127.66ZM326.12 103.13C322.852 101.377 319.471 99.844 316 98.5401L316.36 97.6001C319.865 98.9346 323.279 100.498 326.58 102.28L326.12 103.13Z" fill="#000000"/>
<path opacity="0.3" d="M204.39 151L203.44 150.68C205.085 145.825 207.153 141.124 209.62 136.63L210.49 137.11C208.056 141.553 206.015 146.201 204.39 151ZM216.53 127.66L215.72 127.07C223.938 115.958 234.694 106.972 247.09 100.86L247.54 101.76C235.284 107.808 224.652 116.699 216.53 127.69V127.66ZM326.12 103.13C322.852 101.377 319.471 99.844 316 98.5401L316.36 97.6001C319.865 98.9346 323.279 100.498 326.58 102.28L326.12 103.13Z" fill="#000000"/>
<path d="M359.87 141.74C350.61 122.535 334.315 107.63 314.363 100.115C294.411 92.5997 272.332 93.0504 252.704 101.374C233.075 109.697 217.402 125.255 208.934 144.821C200.466 164.388 199.852 186.463 207.22 206.47C200.54 208.81 193.94 211.32 187.38 213.91C177.92 217.663 168.546 221.583 159.26 225.67C149.98 229.78 140.74 233.97 131.59 238.35C127 240.5 122.47 242.77 117.9 244.97C115.522 245.991 113.368 247.469 111.56 249.32C110.581 250.345 109.719 251.475 108.99 252.69C108.1 254.127 107.426 255.687 106.99 257.32C106.237 260.263 106.563 263.377 107.907 266.101C109.252 268.825 111.526 270.977 114.32 272.17C115.871 272.821 117.508 273.245 119.18 273.43C120.592 273.59 122.018 273.59 123.43 273.43C125.996 273.118 128.476 272.306 130.73 271.04C135.26 268.75 139.82 266.54 144.32 264.19C153.32 259.6 162.32 254.81 171.21 249.95C180.1 245.09 189 240 197.68 234.78C203.68 231.15 209.74 227.44 215.68 223.56C227.086 241.566 244.983 254.495 265.661 259.665C286.34 264.836 308.215 261.853 326.754 251.335C345.294 240.816 359.075 223.569 365.244 203.165C371.413 182.762 369.496 160.768 359.89 141.74H359.87ZM314.41 237.27C302.788 243.006 289.727 245.168 276.877 243.481C264.028 241.795 251.967 236.336 242.219 227.795C232.472 219.254 225.476 208.014 222.116 195.498C218.756 182.981 219.183 169.749 223.343 157.474C227.503 145.2 235.209 134.435 245.486 126.54C255.764 118.646 268.152 113.976 281.084 113.121C294.016 112.266 306.91 115.265 318.138 121.739C329.365 128.213 338.421 137.87 344.16 149.49C347.971 157.207 350.225 165.599 350.792 174.187C351.36 182.775 350.23 191.391 347.468 199.542C344.705 207.694 340.364 215.221 334.692 221.694C329.019 228.168 322.128 233.46 314.41 237.27Z" fill="#000000"/>
<path opacity="0.3" d="M359.87 141.74C350.61 122.535 334.315 107.63 314.363 100.115C294.411 92.5997 272.332 93.0504 252.704 101.374C233.075 109.697 217.402 125.255 208.934 144.821C200.466 164.388 199.852 186.463 207.22 206.47C200.54 208.81 193.94 211.32 187.38 213.91C177.92 217.663 168.546 221.583 159.26 225.67C149.98 229.78 140.74 233.97 131.59 238.35C127 240.5 122.47 242.77 117.9 244.97C115.522 245.991 113.368 247.469 111.56 249.32C110.581 250.345 109.719 251.475 108.99 252.69C108.1 254.127 107.426 255.687 106.99 257.32C106.237 260.263 106.563 263.377 107.907 266.101C109.252 268.825 111.526 270.977 114.32 272.17C115.871 272.821 117.508 273.245 119.18 273.43C120.592 273.59 122.018 273.59 123.43 273.43C125.996 273.118 128.476 272.306 130.73 271.04C135.26 268.75 139.82 266.54 144.32 264.19C153.32 259.6 162.32 254.81 171.21 249.95C180.1 245.09 189 240 197.68 234.78C203.68 231.15 209.74 227.44 215.68 223.56C227.086 241.566 244.983 254.495 265.661 259.665C286.34 264.836 308.215 261.853 326.754 251.335C345.294 240.816 359.075 223.569 365.244 203.165C371.413 182.762 369.496 160.768 359.89 141.74H359.87ZM314.41 237.27C302.788 243.006 289.727 245.168 276.877 243.481C264.028 241.795 251.967 236.336 242.219 227.795C232.472 219.254 225.476 208.014 222.116 195.498C218.756 182.981 219.183 169.749 223.343 157.474C227.503 145.2 235.209 134.435 245.486 126.54C255.764 118.646 268.152 113.976 281.084 113.121C294.016 112.266 306.91 115.265 318.138 121.739C329.365 128.213 338.421 137.87 344.16 149.49C347.971 157.207 350.225 165.599 350.792 174.187C351.36 182.775 350.23 191.391 347.468 199.542C344.705 207.694 340.364 215.221 334.692 221.694C329.019 228.168 322.128 233.46 314.41 237.27Z" fill="#000000"/>
<path d="M158 158.55C158 159.14 158.31 159.62 158.7 159.62C159.09 159.62 159.4 159.14 159.4 158.55C159.4 157.96 159.09 157.48 158.7 157.48C158.31 157.48 158 158 158 158.55Z" fill="#263238"/>
<path d="M158.28 159.62C158.988 161.431 159.94 163.137 161.11 164.69C160.705 164.98 160.242 165.177 159.753 165.268C159.265 165.36 158.762 165.344 158.28 165.22V159.62Z" fill="#FFB573"/>
<path d="M155.93 155.26C155.874 155.26 155.819 155.247 155.769 155.223C155.719 155.199 155.675 155.163 155.64 155.12C155.588 155.043 155.567 154.95 155.582 154.859C155.597 154.767 155.646 154.685 155.72 154.63C156.16 154.296 156.675 154.073 157.22 153.981C157.765 153.888 158.324 153.929 158.85 154.1C158.897 154.113 158.941 154.135 158.979 154.166C159.017 154.197 159.048 154.236 159.07 154.279C159.092 154.323 159.105 154.371 159.107 154.42C159.11 154.468 159.102 154.517 159.085 154.563C159.067 154.609 159.04 154.65 159.005 154.685C158.971 154.719 158.929 154.746 158.884 154.764C158.838 154.782 158.789 154.789 158.74 154.787C158.691 154.784 158.644 154.772 158.6 154.75C158.182 154.622 157.74 154.596 157.31 154.674C156.88 154.752 156.476 154.932 156.13 155.2C156.071 155.239 156.001 155.26 155.93 155.26Z" fill="#263238"/>
<path d="M137.8 163C138.8 168.37 139.9 178.22 136.14 181.81C136.14 181.81 137.61 187.26 147.6 187.26C158.6 187.26 152.84 181.81 152.84 181.81C146.84 180.37 147.01 175.93 148.05 171.75L137.8 163Z" fill="#FFB573"/>
<path d="M131.65 184.64C132.84 182.79 130.84 178.3 130.84 178.3C130.84 178.3 148.52 173.85 155.75 180.68C157.25 182.09 155.59 184.17 155.59 184.17L131.65 184.64Z" fill="#000000"/>
<path opacity="0.1" d="M131.65 184.64C132.84 182.79 130.84 178.3 130.84 178.3C130.84 178.3 148.52 173.85 155.75 180.68C157.25 182.09 155.59 184.17 155.59 184.17L131.65 184.64Z" fill="#000000"/>
<path d="M102.4 388.67C101.47 388.67 99.9798 387.12 99.5398 386.54C99.5208 386.512 99.5107 386.479 99.5107 386.445C99.5107 386.411 99.5208 386.378 99.5398 386.35C99.5559 386.322 99.5793 386.299 99.6074 386.283C99.6356 386.267 99.6675 386.259 99.6998 386.26C99.8098 386.26 102.26 386.48 102.93 387.35C103.003 387.442 103.055 387.548 103.082 387.662C103.11 387.776 103.112 387.895 103.09 388.01C103.081 388.159 103.026 388.301 102.933 388.418C102.84 388.534 102.713 388.619 102.57 388.66L102.4 388.67ZM100.08 386.67C100.81 387.51 101.98 388.46 102.48 388.34C102.48 388.34 102.68 388.29 102.74 387.97C102.753 387.903 102.751 387.834 102.733 387.768C102.716 387.702 102.684 387.641 102.64 387.59C101.899 387.029 101.008 386.701 100.08 386.65V386.67Z" fill="#000000"/>
<path d="M100.19 386.65C100.01 386.668 99.8292 386.668 99.6497 386.65C99.6181 386.647 99.5879 386.636 99.563 386.616C99.538 386.596 99.5195 386.57 99.5097 386.54C99.4956 386.512 99.4883 386.481 99.4883 386.45C99.4883 386.419 99.4956 386.388 99.5097 386.36C99.5797 386.3 101.05 384.77 102.16 384.77C102.293 384.767 102.424 384.792 102.547 384.844C102.669 384.895 102.779 384.972 102.87 385.07C102.969 385.153 103.037 385.268 103.063 385.395C103.088 385.522 103.07 385.655 103.01 385.77C102.72 386.33 101.19 386.65 100.19 386.65ZM100.06 386.3C101.06 386.3 102.51 385.99 102.75 385.55C102.75 385.55 102.82 385.42 102.66 385.26C102.601 385.197 102.53 385.147 102.451 385.114C102.371 385.081 102.286 385.066 102.2 385.07C101.38 385.258 100.635 385.686 100.06 386.3Z" fill="#000000"/>
<path d="M168.39 411.37C167.632 411.365 166.876 411.295 166.13 411.16C166.093 411.153 166.059 411.133 166.036 411.104C166.012 411.075 165.999 411.038 166 411C165.994 410.966 165.999 410.93 166.013 410.898C166.027 410.866 166.05 410.839 166.08 410.82C166.19 410.76 168.75 409.29 169.98 409.63C170.094 409.656 170.202 409.705 170.296 409.773C170.391 409.842 170.47 409.93 170.53 410.03C170.608 410.141 170.65 410.274 170.65 410.41C170.65 410.546 170.608 410.679 170.53 410.79C170.24 411.24 169.33 411.37 168.39 411.37ZM166.7 410.9C168.06 411.1 169.92 411.09 170.26 410.61C170.31 410.55 170.35 410.44 170.26 410.23C170.183 410.106 170.061 410.016 169.92 409.98C169.14 409.78 167.59 410.44 166.7 410.9Z" fill="#000000"/>
<path d="M166.17 411.17C166.137 411.179 166.103 411.179 166.07 411.17C166.042 411.152 166.021 411.126 166.008 411.096C165.996 411.065 165.993 411.032 166 411C166.068 409.959 166.467 408.967 167.14 408.17C167.276 408.052 167.436 407.966 167.608 407.916C167.781 407.866 167.962 407.853 168.14 407.88C168.62 407.88 168.76 408.17 168.79 408.36C168.92 409.19 167.17 410.78 166.28 411.18L166.17 411.17ZM167.96 408.17C167.74 408.168 167.527 408.246 167.36 408.39C166.795 409.021 166.444 409.816 166.36 410.66C167.26 410.11 168.46 408.87 168.36 408.37C168.36 408.37 168.36 408.2 168.02 408.17H167.96Z" fill="#000000"/>
<path d="M158.09 410.99H165.44L166.17 393.98H158.82L158.09 410.99Z" fill="#FFB573"/>
<path d="M92.6396 381.79L98.7796 385.81L112.34 374.36L106.19 370.33L92.6396 381.79Z" fill="#FFB573"/>
<path d="M99.7898 385.43L93.4098 380.2C93.2971 380.107 93.1557 380.057 93.0098 380.057C92.8639 380.057 92.7225 380.107 92.6098 380.2L87.3498 384.33C87.2227 384.431 87.1201 384.56 87.0496 384.706C86.979 384.852 86.9424 385.012 86.9424 385.175C86.9424 385.337 86.979 385.498 87.0496 385.644C87.1201 385.79 87.2227 385.919 87.3498 386.02C89.6098 387.81 90.7998 388.57 93.6098 390.87C95.3398 392.28 99.6098 396.6 102.02 398.55C104.43 400.5 106.64 398.4 105.84 397.39C102.25 392.84 100.84 388.95 100.43 386.54C100.359 386.104 100.131 385.709 99.7898 385.43Z" fill="#263238"/>
<path d="M165.39 410.14H157.39C157.244 410.14 157.103 410.19 156.988 410.28C156.874 410.371 156.794 410.498 156.76 410.64L155.31 417.17C155.274 417.328 155.274 417.492 155.31 417.651C155.347 417.809 155.419 417.957 155.521 418.083C155.623 418.209 155.753 418.31 155.9 418.379C156.047 418.448 156.208 418.482 156.37 418.48C159.26 418.43 163.44 418.26 167.08 418.26C171.33 418.26 175.01 418.49 179.99 418.49C182.99 418.49 183.85 415.44 182.58 415.17C176.84 413.91 172.14 413.78 167.18 410.71C166.648 410.357 166.028 410.16 165.39 410.14Z" fill="#263238"/>
<path d="M121.66 184C115.29 187 111.66 207.1 111.66 207.1L127.23 213.31C129.509 207.745 131.351 202.011 132.74 196.16C134.88 186.9 128.18 180.9 121.66 184Z" fill="#263238"/>
<path d="M129.92 195.33C126.07 199.23 124.31 206.87 123.54 211.84L127.27 213.33C129.484 207.923 131.289 202.357 132.67 196.68C132.34 194.56 131.52 193.71 129.92 195.33Z" fill="#263238"/>
<path d="M164.14 183.86C164.14 183.86 171.96 192.7 164.58 247.36H125.29C125.02 241.36 128.81 211.91 122.99 183.49C127.332 182.648 131.725 182.093 136.14 181.83C141.702 181.499 147.278 181.499 152.84 181.83C156.653 182.213 160.431 182.892 164.14 183.86Z" fill="#263238"/>
<path d="M167.73 205.08L161.11 193.67C159.832 198.994 159.31 204.471 159.56 209.94C159.74 213.86 163.33 228.38 166.56 230.5C167.417 222.055 167.807 213.568 167.73 205.08Z" fill="#263238"/>
<path d="M168.65 191.67C169.65 196.53 170.65 201.51 171.72 206.39C172.79 211.27 173.9 216.17 175.19 220.9C175.52 222.07 175.83 223.27 176.19 224.39L176.46 225.25L176.59 225.68V225.63C176.52 225.54 176.44 225.53 176.5 225.63C176.911 226.079 177.436 226.407 178.02 226.58C178.965 226.932 179.939 227.203 180.93 227.39C185.658 228.139 190.445 228.451 195.23 228.32L196.18 233.76C194.84 234.19 193.59 234.5 192.27 234.81C190.95 235.12 189.65 235.38 188.32 235.58C185.568 236.038 182.778 236.226 179.99 236.14C178.44 236.098 176.899 235.897 175.39 235.54C173.472 235.12 171.669 234.284 170.11 233.09C169.092 232.268 168.251 231.247 167.64 230.09C167.48 229.79 167.34 229.45 167.21 229.16L167.03 228.69L166.66 227.69C166.15 226.42 165.73 225.17 165.27 223.92C163.58 218.92 162.17 213.87 160.93 208.83C159.69 203.79 158.62 198.76 157.73 193.59L168.65 191.67Z" fill="#FFB573"/>
<path d="M154.33 189.22C152.26 195.93 160.65 215.94 160.65 215.94L177.36 211.74C177.36 211.74 176.72 201.34 172.91 193.09C167.17 180.65 156.81 181.17 154.33 189.22Z" fill="#263238"/>
<path d="M195.09 228.32L203.41 228.11L199.41 236.77C199.41 236.77 196.02 237.22 193.24 232.65L190.31 229.15L193.68 228.48C194.143 228.382 194.616 228.329 195.09 228.32Z" fill="#FFB573"/>
<path d="M208.66 229.72L203.9 236.9L199.41 236.77L203.41 228.11L208.66 229.72Z" fill="#FFB573"/>
<path d="M166.17 393.98L165.79 402.75H158.44L158.82 393.98H166.17Z" fill="#FFB573"/>
<path d="M106.19 370.33L112.34 374.36L105.34 380.26L99.1997 376.24L106.19 370.33Z" fill="#FFB573"/>
<path d="M138.26 157.28C138.7 164.55 138.59 168.84 142.26 172.57C147.78 178.2 156.77 174.87 158.51 167.57C160.08 161.03 159.1 150.23 151.98 147.33C150.409 146.696 148.702 146.471 147.021 146.677C145.339 146.883 143.737 147.513 142.366 148.508C140.995 149.502 139.898 150.829 139.18 152.364C138.462 153.898 138.145 155.59 138.26 157.28Z" fill="#FFB573"/>
<path d="M129.7 156C131.51 162.63 135.77 170.27 141.28 170.76C148.12 171.36 151.21 164.29 152.11 156.99C156.21 154.18 154.06 151.09 158.17 150.7C163.45 150.2 161.76 140.54 154.81 138.99C154.81 138.99 157.14 143.34 152.25 141.14C147.6 138.93 142.433 138.034 137.31 138.55C137.31 138.55 143.55 141.67 137.45 143.06C131.35 144.45 129.53 148.21 132.34 150.48C132.34 150.49 128.51 151.64 129.7 156Z" fill="#263238"/>
<path d="M147.94 158.49C148.074 160.297 148.802 162.009 150.01 163.36C151.61 165.13 153.28 164.03 153.56 161.88C153.82 159.95 153.29 156.7 151.33 155.72C149.37 154.74 147.81 156.31 147.94 158.49Z" fill="#FFB573"/>
<path d="M150.64 247.36C150.64 247.36 157.8 299.21 152.16 319.99C143.22 352.89 109.04 380.66 109.04 380.66L97.4497 373.06C97.4497 373.06 126.56 349.61 130.12 322.06C133.32 297.33 125.29 267.42 125.29 247.35L150.64 247.36Z" fill="#000000"/>
<path opacity="0.1" d="M150.64 247.36C150.64 247.36 157.8 299.21 152.16 319.99C143.22 352.89 109.04 380.66 109.04 380.66L97.4497 373.06C97.4497 373.06 126.56 349.61 130.12 322.06C133.32 297.33 125.29 267.42 125.29 247.35L150.64 247.36Z" fill="#000000"/>
<path d="M153.6 277C151.693 274.816 149.595 272.808 147.33 271C148.55 287.83 149.55 312.76 148.44 330.47C149.932 327.075 151.175 323.576 152.16 320C154.91 309.85 154.62 292.32 153.6 277Z" fill="#000000"/>
<path opacity="0.3" d="M153.6 277C151.693 274.816 149.595 272.808 147.33 271C148.55 287.83 149.55 312.76 148.44 330.47C149.932 327.075 151.175 323.576 152.16 320C154.91 309.85 154.62 292.32 153.6 277Z" fill="#000000"/>
<path d="M113.71 378.07C113.76 378.07 109.22 381.07 109.22 381.07L96.5596 372.77L100.56 369.46L113.71 378.07Z" fill="#000000"/>
<path opacity="0.3" d="M113.71 378.07C113.76 378.07 109.22 381.07 109.22 381.07L96.5596 372.77L100.56 369.46L113.71 378.07Z" fill="#000000"/>
<path d="M164.58 247.36C164.58 247.36 175.64 294.26 176.42 316.67C177.3 341.79 168.53 401.05 168.53 401.05H156.08C156.08 401.05 154.55 341.33 154 318.45C153.39 293.5 138.75 247.36 138.75 247.36H164.58Z" fill="#000000"/>
<path opacity="0.1" d="M164.58 247.36C164.58 247.36 175.64 294.26 176.42 316.67C177.3 341.79 168.53 401.05 168.53 401.05H156.08C156.08 401.05 154.55 341.33 154 318.45C153.39 293.5 138.75 247.36 138.75 247.36H164.58Z" fill="#000000"/>
<path d="M170.92 396.1C170.98 396.1 170.22 401.26 170.22 401.26H155.08L154.67 396.65L170.92 396.1Z" fill="#000000"/>
<path opacity="0.3" d="M170.92 396.1C170.98 396.1 170.22 401.26 170.22 401.26H155.08L154.67 396.65L170.92 396.1Z" fill="#000000"/>
</svg>
