<svg width="500" height="500" viewBox="0 0 500 500" fill="none" xmlns="http://www.w3.org/2000/svg">
<path d="M299.85 327.68C262.62 336.49 215.48 379.84 182.25 345.68C154.38 317.06 168.25 279.95 126.25 263.53C95.6398 251.53 45.3298 229.83 76.1398 189.04C100.23 157.13 146.31 139.59 184.94 137.17C215.28 135.28 280.83 140.78 296.87 172.53C314.87 208.22 269.54 250.97 330.35 252.53C366.94 253.45 414.06 266.08 401.48 316.29C396.48 336.1 382.06 336.03 365.76 332.29C341.71 326.66 325.47 321.61 299.85 327.68Z" fill="#000000"/>
<path opacity="0.9" d="M299.85 327.68C262.62 336.49 215.48 379.84 182.25 345.68C154.38 317.06 168.25 279.95 126.25 263.53C95.6398 251.53 45.3298 229.83 76.1398 189.04C100.23 157.13 146.31 139.59 184.94 137.17C215.28 135.28 280.83 140.78 296.87 172.53C314.87 208.22 269.54 250.97 330.35 252.53C366.94 253.45 414.06 266.08 401.48 316.29C396.48 336.1 382.06 336.03 365.76 332.29C341.71 326.66 325.47 321.61 299.85 327.68Z" fill="#FFFFFF"/>
<path d="M250 427.56C357.082 427.56 443.89 422.492 443.89 416.24C443.89 409.988 357.082 404.92 250 404.92C142.917 404.92 56.1099 409.988 56.1099 416.24C56.1099 422.492 142.917 427.56 250 427.56Z" fill="#FFFFFF"/>
<path d="M423.12 148.13H422.12V153.64H423.12V148.13Z" fill="#000000"/>
<path d="M423.12 126.97H422.12V143.41H423.12V126.97Z" fill="#000000"/>
<path d="M407.62 91.28H255.07C251.887 91.28 248.835 92.5443 246.585 94.7947C244.334 97.0452 243.07 100.097 243.07 103.28V153.53L226.48 170.12L243.07 186.72V287.94C243.07 291.123 244.334 294.175 246.585 296.425C248.835 298.676 251.887 299.94 255.07 299.94H407.62C410.803 299.94 413.855 298.676 416.105 296.425C418.356 294.175 419.62 291.123 419.62 287.94V103.28C419.62 100.097 418.356 97.0452 416.105 94.7947C413.855 92.5443 410.803 91.28 407.62 91.28Z" fill="#000000"/>
<path opacity="0.1" d="M311.61 299.94H272L312.05 91.28H351.66L311.61 299.94Z" fill="#FFFFFF"/>
<path opacity="0.1" d="M341.96 299.94H327.75L367.79 91.28H382L341.96 299.94Z" fill="#FFFFFF"/>
<path d="M342.59 139.39C342.59 135.255 340.948 131.29 338.024 128.366C335.1 125.443 331.135 123.8 327 123.8C322.865 123.8 318.9 125.443 315.976 128.366C313.053 131.29 311.41 135.255 311.41 139.39V164.86L342.59 153.53V139.39Z" fill="#263238"/>
<path d="M314.17 177.2L312.72 206.59L312.56 210.32C312.467 211.779 312.233 213.226 311.86 214.64C311.18 217.206 310.28 219.709 309.17 222.12C307.062 226.75 304.541 231.181 301.64 235.36L298.03 233.36C299.88 228.91 301.7 224.36 303.1 219.84C303.809 217.661 304.367 215.436 304.77 213.18C304.94 212.189 305.024 211.185 305.02 210.18L304.96 206.52C304.913 201.54 304.966 196.57 305.12 191.61C305.25 186.61 305.47 181.71 305.82 176.74L314.17 177.2Z" fill="#FFB573"/>
<path d="M308.48 167.23C305.1 168.09 302.74 181.97 302.74 181.97L312.04 188.3C312.04 188.3 320.95 174.3 318.36 170.58C315.66 166.71 313.4 166 308.48 167.23Z" fill="#263238"/>
<path opacity="0.2" d="M308.78 170.33L306.19 184.32L311.41 187.87L308.78 170.33Z" fill="#000000"/>
<path d="M298 233.32L295.66 240.37L303.5 237.55C303.5 237.55 304.32 232.36 301.62 230.3L300.86 230.6C300.195 230.78 299.585 231.123 299.086 231.598C298.587 232.073 298.214 232.665 298 233.32Z" fill="#FFB573"/>
<path d="M296.83 246.35L303.68 245.01L303.53 237.55L295.69 240.37L296.83 246.35Z" fill="#FFB573"/>
<path d="M308.48 167.23C308.48 167.23 304.57 168.6 312.39 216.64H345.64C345.08 203.11 345.07 194.76 351.53 166.99C346.875 166.026 342.156 165.404 337.41 165.13C332.383 164.77 327.337 164.77 322.31 165.13C315.83 165.72 308.48 167.23 308.48 167.23Z" fill="#263238"/>
<path opacity="0.7" d="M318.26 202.05H326.5L320.79 185.8H312.56L318.26 202.05Z" fill="#000000"/>
<path d="M317.7 202.05H325.94L320.23 185.8H311.99L317.7 202.05Z" fill="#000000"/>
<path d="M335.92 148.13C334.97 152.99 334.01 161.89 337.41 165.13C337.41 165.13 336.09 170.06 327.06 170.06C317.13 170.06 322.31 165.13 322.31 165.13C327.73 163.84 327.59 159.82 326.65 156.04L335.92 148.13Z" fill="#FFB573"/>
<path opacity="0.2" d="M332.14 151.36L326.65 156C326.888 156.877 327.045 157.774 327.12 158.68C329.19 158.38 332.03 156.11 332.25 153.94C332.37 153.081 332.332 152.206 332.14 151.36Z" fill="#000000"/>
<path d="M337.33 136C338.33 144.06 338.91 147.45 335.64 152.29C330.72 159.57 320.64 159.02 317.22 151.41C314.22 144.56 313.08 132.52 320.3 127.9C321.887 126.874 323.71 126.271 325.596 126.148C327.482 126.025 329.368 126.387 331.075 127.199C332.781 128.011 334.252 129.245 335.347 130.786C336.442 132.326 337.124 134.121 337.33 136Z" fill="#FFB573"/>
<path d="M317.61 129.86C317.56 130.03 329.61 142.86 338.11 141.81C339.89 139.14 339.06 130.75 335.84 128.97C332.62 127.19 327.84 124.69 324.61 125.25C321.38 125.81 317.61 129.86 317.61 129.86Z" fill="#263238"/>
<path d="M312.39 216.64C312.39 216.64 302.74 244.64 307.5 299.94H335.34C337.34 269.94 336.74 216.64 336.74 216.64H312.39Z" fill="#FFFFFF"/>
<path d="M345.64 216.64H321.59C321.59 216.64 327.68 272.57 331.59 299.94H356.49C359.45 230.3 345.64 216.64 345.64 216.64Z" fill="#FFFFFF"/>
<path d="M326.28 299.94C326.28 299.94 323.89 263.86 326.78 254.08C329.61 268.64 337.78 299.94 337.78 299.94H326.28Z" fill="#FFFFFF"/>
<path d="M325 140.5C325.12 141.15 324.87 141.74 324.45 141.82C324.03 141.9 323.58 141.43 323.45 140.82C323.32 140.21 323.58 139.58 324 139.5C324.42 139.42 324.89 139.85 325 140.5Z" fill="#263238"/>
<path d="M317.67 141.86C317.79 142.51 317.54 143.1 317.12 143.17C316.7 143.24 316.25 142.79 316.12 142.17C315.99 141.55 316.25 140.93 316.67 140.85C317.09 140.77 317.55 141.21 317.67 141.86Z" fill="#263238"/>
<path d="M316.88 140.82L315.23 140.66C315.23 140.66 316.26 141.73 316.88 140.82Z" fill="#263238"/>
<path d="M320.15 142.61C319.844 144.197 319.322 145.734 318.6 147.18C318.976 147.354 319.386 147.444 319.8 147.444C320.214 147.444 320.624 147.354 321 147.18L320.15 142.61Z" fill="#FFB573"/>
<path d="M325 149.07C324.69 149.178 324.373 149.262 324.05 149.32C324.001 149.329 323.95 149.318 323.909 149.29C323.868 149.262 323.84 149.219 323.83 149.17C323.821 149.12 323.831 149.068 323.859 149.025C323.887 148.982 323.93 148.952 323.98 148.94C324.793 148.811 325.565 148.491 326.23 148.006C326.896 147.521 327.437 146.885 327.81 146.15C327.82 146.127 327.834 146.106 327.852 146.089C327.87 146.071 327.891 146.058 327.914 146.048C327.937 146.039 327.962 146.034 327.987 146.035C328.012 146.035 328.037 146.04 328.06 146.05C328.083 146.06 328.104 146.074 328.121 146.092C328.139 146.11 328.152 146.131 328.162 146.154C328.171 146.178 328.176 146.202 328.175 146.227C328.175 146.252 328.17 146.277 328.16 146.3C327.845 146.95 327.404 147.53 326.861 148.006C326.318 148.482 325.685 148.843 325 149.07Z" fill="#263238"/>
<path d="M340.85 142.94C340.575 144.486 339.697 145.86 338.41 146.76C336.69 147.94 335.16 146.57 335.08 144.6C335 142.83 335.8 140.07 337.79 139.68C338.227 139.603 338.677 139.635 339.098 139.775C339.519 139.915 339.899 140.158 340.203 140.482C340.506 140.805 340.725 141.2 340.838 141.629C340.951 142.058 340.955 142.509 340.85 142.94Z" fill="#FFB573"/>
<path d="M327.68 138.46C327.602 138.485 327.519 138.485 327.44 138.462C327.362 138.439 327.292 138.393 327.24 138.33C326.15 136.9 323.85 136.97 323.82 136.97C323.717 136.97 323.619 136.931 323.544 136.86C323.47 136.789 323.425 136.693 323.42 136.59C323.417 136.488 323.454 136.389 323.524 136.315C323.593 136.24 323.688 136.195 323.79 136.19C323.9 136.19 326.53 136.11 327.86 137.86C327.891 137.9 327.914 137.947 327.926 137.996C327.939 138.045 327.942 138.097 327.934 138.147C327.927 138.197 327.909 138.246 327.883 138.289C327.856 138.333 327.821 138.37 327.78 138.4L327.68 138.46Z" fill="#263238"/>
<path d="M314.84 138.87C314.776 138.896 314.707 138.903 314.64 138.89C314.572 138.878 314.51 138.847 314.46 138.8C314.423 138.765 314.393 138.724 314.373 138.677C314.353 138.631 314.343 138.581 314.343 138.53C314.343 138.479 314.353 138.429 314.373 138.383C314.393 138.336 314.423 138.295 314.46 138.26C314.845 137.778 315.341 137.396 315.905 137.146C316.468 136.895 317.084 136.784 317.7 136.82C317.75 136.826 317.798 136.842 317.842 136.867C317.886 136.892 317.924 136.926 317.955 136.966C317.986 137.006 318.008 137.052 318.021 137.1C318.034 137.149 318.037 137.2 318.03 137.25C318.017 137.352 317.965 137.445 317.885 137.508C317.804 137.572 317.702 137.601 317.6 137.59C317.112 137.562 316.624 137.655 316.18 137.858C315.735 138.062 315.347 138.372 315.05 138.76C314.994 138.819 314.92 138.858 314.84 138.87Z" fill="#263238"/>
<path d="M355.36 176.52C356.31 181.2 357.01 185.81 357.57 190.52C358.156 195.239 358.49 199.986 358.57 204.74V205.19C358.57 205.19 358.57 205.51 358.57 205.69C358.568 205.911 358.548 206.132 358.51 206.35C358.33 207.485 357.769 208.525 356.92 209.3C356.234 209.911 355.399 210.331 354.5 210.52C353.945 210.641 353.378 210.698 352.81 210.69C351.995 210.667 351.185 210.563 350.39 210.38C349.69 210.23 349.04 210.04 348.39 209.85C346.062 209.062 343.793 208.11 341.6 207C337.367 204.868 333.275 202.467 329.35 199.81L331.35 196.17C333.46 197.03 335.59 197.93 337.72 198.76C339.85 199.59 341.96 200.44 344.09 201.17C346.122 201.904 348.195 202.515 350.3 203C350.8 203.11 351.3 203.2 351.71 203.25C352.042 203.289 352.378 203.289 352.71 203.25C352.83 203.25 352.82 203.25 352.71 203.25C352.38 203.326 352.077 203.488 351.83 203.72C351.416 204.095 351.132 204.592 351.02 205.14V205.37C351.02 205.37 351.02 205.57 351.02 205.44V205.02C350.64 200.57 350.02 196.02 349.37 191.56C348.72 187.1 347.91 182.51 347.14 178.08L355.36 176.52Z" fill="#FFB573"/>
<path d="M351.53 167C354.87 168 358.87 179.48 358.87 179.48L345.94 188.73C345.94 188.73 341.23 179.15 342.63 174.84C344.09 170.35 347.73 165.83 351.53 167Z" fill="#263238"/>
<path d="M324.22 139.46L322.57 139.3C322.57 139.3 323.6 140.37 324.22 139.46Z" fill="#263238"/>
<path d="M332.2 196.52L324.2 192.73L326.32 200.78C326.32 200.78 331.03 203.13 333.32 200.61L332.2 196.52Z" fill="#FFB573"/>
<path d="M317.5 194.24L319.63 200.88L326.33 200.78L324.21 192.73L317.5 194.24Z" fill="#FFB573"/>
<path d="M346.71 217.13C335.081 218.63 323.337 219.052 311.63 218.39C311.432 218.377 311.247 218.287 311.114 218.14C310.981 217.992 310.912 217.798 310.92 217.6C310.92 216.87 311 216.14 311.03 215.41C311.034 215.312 311.057 215.216 311.099 215.127C311.14 215.038 311.199 214.958 311.271 214.892C311.344 214.826 311.429 214.775 311.521 214.742C311.614 214.709 311.712 214.695 311.81 214.7C323.297 215.352 334.819 214.94 346.23 213.47C346.425 213.447 346.62 213.501 346.775 213.621C346.931 213.741 347.033 213.916 347.06 214.11C347.15 214.84 347.25 215.57 347.35 216.3C347.363 216.396 347.356 216.495 347.331 216.589C347.305 216.683 347.262 216.771 347.202 216.848C347.143 216.925 347.069 216.989 346.984 217.038C346.9 217.086 346.807 217.118 346.71 217.13Z" fill="#000000"/>
<path opacity="0.4" d="M346.71 217.13C335.081 218.63 323.337 219.052 311.63 218.39C311.432 218.377 311.247 218.287 311.114 218.14C310.981 217.992 310.912 217.798 310.92 217.6C310.92 216.87 311 216.14 311.03 215.41C311.034 215.312 311.057 215.216 311.099 215.127C311.14 215.038 311.199 214.958 311.271 214.892C311.344 214.826 311.429 214.775 311.521 214.742C311.614 214.709 311.712 214.695 311.81 214.7C323.297 215.352 334.819 214.94 346.23 213.47C346.425 213.447 346.62 213.501 346.775 213.621C346.931 213.741 347.033 213.916 347.06 214.11C347.15 214.84 347.25 215.57 347.35 216.3C347.363 216.396 347.356 216.495 347.331 216.589C347.305 216.683 347.262 216.771 347.202 216.848C347.143 216.925 347.069 216.989 346.984 217.038C346.9 217.086 346.807 217.118 346.71 217.13Z" fill="#000000"/>
<path d="M335 107.79C335 108.502 334.789 109.198 334.393 109.79C333.998 110.382 333.435 110.843 332.777 111.116C332.12 111.388 331.396 111.46 330.697 111.321C329.999 111.182 329.358 110.839 328.854 110.336C328.351 109.832 328.008 109.191 327.869 108.492C327.73 107.794 327.801 107.07 328.074 106.412C328.346 105.754 328.808 105.192 329.4 104.797C329.992 104.401 330.688 104.19 331.4 104.19C332.355 104.19 333.27 104.569 333.945 105.244C334.621 105.919 335 106.835 335 107.79Z" fill="#FFFFFF"/>
<path d="M317.18 111.39C319.168 111.39 320.78 109.778 320.78 107.79C320.78 105.802 319.168 104.19 317.18 104.19C315.192 104.19 313.58 105.802 313.58 107.79C313.58 109.778 315.192 111.39 317.18 111.39Z" fill="#FFFFFF"/>
<path d="M349.12 107.79C349.12 108.502 348.909 109.198 348.513 109.79C348.118 110.382 347.555 110.843 346.898 111.116C346.24 111.388 345.516 111.46 344.818 111.321C344.119 111.182 343.478 110.839 342.974 110.336C342.471 109.832 342.128 109.191 341.989 108.492C341.85 107.794 341.921 107.07 342.194 106.412C342.466 105.754 342.928 105.192 343.52 104.797C344.112 104.401 344.808 104.19 345.52 104.19C345.993 104.19 346.461 104.283 346.898 104.464C347.334 104.645 347.731 104.91 348.066 105.244C348.4 105.579 348.665 105.976 348.846 106.412C349.027 106.849 349.12 107.317 349.12 107.79Z" fill="#FFFFFF"/>
<path d="M200.86 405.49L208.1 403.81L205.27 386.88L198.03 388.56L200.86 405.49Z" fill="#FFB573"/>
<path d="M208.29 402.88L200.16 404.77C200.021 404.797 199.899 404.877 199.818 404.993C199.738 405.108 199.706 405.251 199.73 405.39L200.78 411.9C200.816 412.068 200.886 412.227 200.984 412.369C201.083 412.51 201.208 412.63 201.353 412.723C201.497 412.816 201.659 412.88 201.829 412.91C201.998 412.94 202.172 412.937 202.34 412.9C205.16 412.2 206.47 411.72 210.05 410.9C212.25 410.39 221.66 408.44 224.69 407.74C227.72 407.04 226.97 404.06 225.62 404.08C219.57 404.21 212.04 404.19 209.62 403.08C209.211 402.869 208.743 402.798 208.29 402.88Z" fill="#263238"/>
<path opacity="0.2" d="M198.03 388.57L205.27 386.88L206.73 395.61L199.48 397.29L198.03 388.57Z" fill="#000000"/>
<path d="M187.16 220.47C187.16 220.47 196.7 280.82 199.5 301.87C202.57 324.92 209.05 392.34 209.05 392.34L195.93 396C195.93 396 183.5 330.66 178.38 308.25C172.82 283.93 160.67 220.51 160.67 220.51L187.16 220.47Z" fill="#000000"/>
<path opacity="0.5" d="M187.16 220.47C187.16 220.47 196.7 280.82 199.5 301.87C202.57 324.92 209.05 392.34 209.05 392.34L195.93 396C195.93 396 183.5 330.66 178.38 308.25C172.82 283.93 160.67 220.51 160.67 220.51L187.16 220.47Z" fill="#000000"/>
<path opacity="0.3" d="M171.6 241.67C176.6 254.46 176.32 279.75 174.17 288.67C171.17 274.04 167.69 256.54 165.02 242.93C166 239.43 168.55 233.89 171.6 241.67Z" fill="#000000"/>
<path d="M195.6 396.22L209.65 392.35L209.42 386.64L193.59 392.1L195.6 396.22Z" fill="#000000"/>
<path d="M211.14 403.55C210.481 403.683 209.811 403.746 209.14 403.74C209.105 403.74 209.071 403.73 209.042 403.71C209.014 403.691 208.992 403.663 208.98 403.63C208.965 403.602 208.957 403.572 208.957 403.54C208.957 403.509 208.965 403.478 208.98 403.45C209.18 403.23 210.91 401.36 211.88 401.5C211.989 401.518 212.092 401.563 212.18 401.631C212.267 401.699 212.336 401.788 212.38 401.89C212.474 402.04 212.524 402.213 212.524 402.39C212.524 402.567 212.474 402.74 212.38 402.89C212.06 403.253 211.619 403.487 211.14 403.55ZM209.56 403.38C210.91 403.38 211.86 403.08 212.12 402.67C212.176 402.575 212.206 402.466 212.206 402.355C212.206 402.244 212.176 402.136 212.12 402.04C212.102 401.988 212.07 401.942 212.028 401.906C211.985 401.871 211.934 401.848 211.88 401.84C211.35 401.77 210.28 402.66 209.56 403.38Z" fill="#000000"/>
<path d="M209.19 403.73H209.11C209.081 403.725 209.055 403.712 209.034 403.693C209.012 403.673 208.997 403.648 208.99 403.62C208.99 403.53 208.33 401.49 208.9 400.62C208.973 400.508 209.07 400.414 209.184 400.345C209.299 400.276 209.427 400.233 209.56 400.22C209.706 400.189 209.858 400.208 209.99 400.276C210.123 400.343 210.229 400.454 210.29 400.59C210.63 401.34 209.89 403.09 209.29 403.69L209.19 403.73ZM209.52 400.58C209.452 400.595 209.388 400.622 209.332 400.662C209.275 400.701 209.227 400.752 209.19 400.81C208.936 401.59 208.936 402.43 209.19 403.21C209.743 402.507 210.011 401.622 209.94 400.73C209.94 400.64 209.81 400.54 209.56 400.56L209.52 400.58Z" fill="#000000"/>
<path d="M187.56 163.1C188.72 164.71 189.68 166.18 190.66 167.76C191.64 169.34 192.56 170.88 193.43 172.48C195.219 175.684 196.841 178.978 198.29 182.35C199.01 184.04 199.72 185.75 200.34 187.5C200.67 188.37 200.95 189.26 201.24 190.15C201.38 190.62 201.54 190.98 201.67 191.53C201.8 192.08 201.93 192.61 202.02 193.23C202.136 193.955 202.199 194.686 202.21 195.42C202.209 195.984 202.155 196.546 202.05 197.1C201.853 198.095 201.413 199.026 200.77 199.81C200.309 200.353 199.745 200.799 199.11 201.12C198.563 201.402 197.97 201.585 197.36 201.66C196.612 201.748 195.854 201.687 195.13 201.48C194.358 201.271 193.628 200.933 192.97 200.48C192.06 199.85 191.23 199.112 190.5 198.28C189.823 197.528 189.205 196.726 188.65 195.88L192.35 191.72C193.73 192.321 195.154 192.816 196.61 193.2C196.85 193.2 197.08 193.2 196.9 193.08C196.614 192.954 196.297 192.915 195.99 192.97C195.594 193.014 195.208 193.126 194.85 193.3C194.375 193.542 193.957 193.881 193.621 194.294C193.285 194.707 193.039 195.186 192.9 195.7C192.83 195.96 192.82 196.05 192.78 196.06C192.74 196.07 192.65 195.88 192.53 195.66L192.12 194.83C191.97 194.55 191.8 194.1 191.64 193.74C191.31 192.98 191.01 192.22 190.64 191.47C189.96 189.96 189.25 188.47 188.49 186.96C186.97 183.96 185.34 181.03 183.64 178.12C182.78 176.67 181.91 175.22 181.02 173.79C180.13 172.36 179.21 170.89 178.37 169.62L187.56 163.1Z" fill="#FFB573"/>
<path d="M184.77 156.35C177.41 154.64 172.94 159.35 175.14 168.56C176.505 173.829 178.174 179.014 180.14 184.09C180.57 185.23 180.97 186.25 181.3 187.09L198 177.75C196.2 170.44 189.69 157.5 184.77 156.35Z" fill="#000000"/>
<path opacity="0.3" d="M185.08 165.08C180.64 161.08 185.18 177.2 187.08 183.88L191.99 181.14C191.47 176.51 188.49 168.13 185.08 165.08Z" fill="#000000"/>
<path d="M145.98 408.67H153.39L154.49 391.5H147.08L145.98 408.67Z" fill="#FFB573"/>
<path d="M153.79 407.81H145.46C145.39 407.807 145.321 407.818 145.255 407.843C145.19 407.867 145.13 407.904 145.079 407.951C145.028 407.998 144.987 408.055 144.958 408.119C144.929 408.182 144.912 408.25 144.91 408.32L144.45 414.91C144.447 415.081 144.479 415.251 144.542 415.41C144.606 415.569 144.701 415.713 144.821 415.835C144.941 415.957 145.084 416.054 145.242 416.12C145.399 416.186 145.569 416.22 145.74 416.22C148.64 416.17 150.02 416 153.69 416C155.94 416 165.52 416.24 168.63 416.24C171.74 416.24 171.68 413.16 170.36 412.88C164.46 411.63 157.14 409.88 155.06 408.27C154.703 407.974 154.254 407.811 153.79 407.81Z" fill="#263238"/>
<path opacity="0.2" d="M147.08 391.5H154.49L153.92 400.35H146.51L147.08 391.5Z" fill="#000000"/>
<path d="M172.69 220.47C172.69 220.47 172.94 276.75 171.57 297.97C170.07 321.22 157.12 398.22 157.12 398.22H143.54C143.54 398.22 150.29 323.09 149.65 300.08C148.96 275.08 147.51 220.47 147.51 220.47H172.69Z" fill="#000000"/>
<path opacity="0.5" d="M172.69 220.47C172.69 220.47 172.94 276.75 171.57 297.97C170.07 321.22 157.12 398.22 157.12 398.22H143.54C143.54 398.22 150.29 323.09 149.65 300.08C148.96 275.08 147.51 220.47 147.51 220.47H172.69Z" fill="#000000"/>
<path d="M142.99 398.22H157.67L158.52 393.06L142.32 393.87L142.99 398.22Z" fill="#000000"/>
<path d="M156.41 409.1C155.736 409.085 155.065 408.997 154.41 408.84C154.378 408.829 154.35 408.811 154.327 408.787C154.304 408.762 154.288 408.732 154.28 408.7C154.275 408.667 154.28 408.633 154.294 408.603C154.308 408.573 154.331 408.547 154.36 408.53C154.59 408.36 156.7 406.93 157.61 407.28C157.711 407.321 157.8 407.388 157.869 407.474C157.937 407.56 157.982 407.662 158 407.77C158.045 407.933 158.049 408.104 158.011 408.268C157.972 408.433 157.893 408.585 157.78 408.71C157.386 409.004 156.899 409.143 156.41 409.1ZM154.91 408.59C156.23 408.85 157.21 408.81 157.56 408.46C157.633 408.379 157.684 408.28 157.707 408.173C157.73 408.065 157.724 407.954 157.69 407.85C157.682 407.796 157.661 407.744 157.627 407.7C157.594 407.656 157.55 407.622 157.5 407.6C157 407.41 155.77 408 154.91 408.59Z" fill="#000000"/>
<path d="M154.47 408.84H154.39C154.365 408.825 154.344 408.805 154.329 408.78C154.313 408.756 154.303 408.729 154.3 408.7C154.3 408.61 154.14 406.48 154.9 405.76C154.993 405.664 155.108 405.592 155.235 405.551C155.362 405.509 155.498 405.498 155.63 405.52C155.776 405.526 155.916 405.58 156.029 405.674C156.141 405.768 156.219 405.897 156.25 406.04C156.42 406.85 155.3 408.4 154.56 408.84H154.47ZM155.47 405.84C155.401 405.838 155.333 405.851 155.269 405.877C155.205 405.902 155.148 405.941 155.1 405.99C154.686 406.7 154.507 407.523 154.59 408.34C155.288 407.78 155.749 406.976 155.88 406.09C155.88 405.99 155.8 405.87 155.55 405.84H155.47Z" fill="#000000"/>
<path d="M187.16 220.47H147.51C147.26 216.93 148.17 205.41 147.67 190.74C147.385 179.874 146.157 169.053 144 158.4C143.83 157.6 143.65 156.81 143.47 156.01C143.47 156.01 145.47 155.6 148.36 155.18C150.76 154.83 153.76 154.47 156.7 154.33C162.312 154.01 167.938 154.01 173.55 154.33C176.14 154.57 178.67 155 180.68 155.39C183.26 155.91 184.78 156.39 184.78 156.39C184.78 156.39 194.36 178.78 187.16 220.47Z" fill="#000000"/>
<path d="M187.7 190.39C187.011 189.191 186.094 188.137 185 187.29C184.262 186.867 183.557 186.389 182.89 185.86C182.821 185.809 182.74 185.776 182.655 185.766C182.57 185.755 182.484 185.768 182.405 185.801C182.326 185.834 182.257 185.888 182.205 185.956C182.154 186.024 182.121 186.105 182.11 186.19C182.03 186.77 182.27 187.72 183.69 189.1C183.8 190.93 186.49 192.95 186.49 192.95L187.7 190.39Z" fill="#FFB573"/>
<path opacity="0.3" d="M181.65 194.81H173.41L179.11 178.56H187.35L181.65 194.81Z" fill="#000000"/>
<path d="M182.21 194.81H173.97L179.67 178.56H187.91L182.21 194.81Z" fill="#263238"/>
<path opacity="0.3" d="M147.67 190.74C147.385 179.874 146.157 169.054 144 158.4C146.65 158.17 151.18 158.4 151.9 162.71C152.66 167.31 151.55 178.13 147.67 190.74Z" fill="#000000"/>
<path d="M151.22 165.41L147 179.85L144.91 187.06L143.91 190.66L143.41 192.45L143.17 193.35V193.46C143.174 193.397 143.174 193.333 143.17 193.27C143.189 193.084 143.189 192.896 143.17 192.71C143.098 192.235 142.924 191.781 142.66 191.38C142.5 191.14 142.292 190.936 142.05 190.78C141.79 190.64 141.96 190.78 142.24 190.91C143.099 191.212 143.993 191.406 144.9 191.49C147.225 191.736 149.562 191.837 151.9 191.79C156.75 191.73 161.81 191.45 166.76 191.11L167.86 196.57C162.867 198.161 157.759 199.362 152.58 200.16C149.858 200.595 147.106 200.815 144.35 200.82C142.716 200.822 141.088 200.63 139.5 200.25C138.333 199.976 137.228 199.488 136.24 198.81C135.472 198.276 134.816 197.597 134.31 196.81C133.681 195.885 133.287 194.821 133.16 193.71C133.11 193.208 133.11 192.702 133.16 192.2C133.16 191.98 133.16 191.76 133.25 191.54L133.32 191.14L133.5 190.14L133.85 188.23C134.09 186.96 134.35 185.69 134.63 184.43C135.17 181.91 135.73 179.43 136.36 176.9C137.59 171.9 138.96 167 140.54 162.06L151.22 165.41Z" fill="#FFB573"/>
<path d="M143.46 156C138.52 157.15 132.98 170.16 131.03 177.47C130.7 178.72 130.44 179.79 130.24 180.61C129.98 181.69 129.84 182.34 129.84 182.34L146.41 187.06C146.75 186.24 147.17 185.22 147.61 184.06C149.671 178.991 151.434 173.805 152.89 168.53C155.24 159.34 150.84 154.3 143.46 156Z" fill="#000000"/>
<path d="M172.74 154.27C167.85 153.11 167.02 150.08 167.37 146.75C167.455 145.916 167.592 145.087 167.78 144.27L161.68 139.17L157.2 135.43C158.41 140.86 159.74 150.75 156.04 154.37C160.946 158.453 166.386 161.848 172.21 164.46C178 160.21 172.74 154.27 172.74 154.27Z" fill="#FFB573"/>
<path opacity="0.2" d="M167.78 144.27C167.591 145.087 167.454 145.916 167.37 146.75C165.09 146.29 161.64 144.25 161.37 141.67C161.383 140.826 161.501 139.986 161.72 139.17L167.78 144.27Z" fill="#000000"/>
<path d="M179.21 118.21C181.34 121.59 177.32 131.32 172.21 130.62C167.1 129.92 175.19 111.79 179.21 118.21Z" fill="#263238"/>
<path d="M157.65 124.48C156.75 131.81 155.84 136.04 158.77 140.48C159.716 141.952 161.046 143.137 162.617 143.908C164.187 144.679 165.939 145.006 167.682 144.853C169.425 144.701 171.093 144.075 172.506 143.044C173.919 142.012 175.024 140.614 175.7 139C178.45 132.83 179.47 121.89 172.99 117.5C171.598 116.517 169.972 115.915 168.275 115.755C166.578 115.595 164.869 115.883 163.317 116.589C161.766 117.295 160.426 118.395 159.432 119.779C158.437 121.164 157.823 122.784 157.65 124.48Z" fill="#FFB573"/>
<path d="M156.8 130.1C160.55 129.63 163.26 123.38 162.49 120.46C165.25 122.46 187.16 125 183.82 110.71C177.57 110.71 151.49 109.54 155.82 115.17C152.82 115.17 149.98 117.89 152.02 124.17C154.08 130.63 156.8 130.1 156.8 130.1Z" fill="#263238"/>
<path d="M153.59 131.06C154.226 132.766 155.435 134.198 157.01 135.11C159.01 136.22 160.21 134.39 159.79 132.11C159.42 130.04 157.92 126.97 155.79 126.82C153.66 126.67 152.79 128.9 153.59 131.06Z" fill="#FFB573"/>
<path d="M168.15 128.84C168.04 129.43 168.26 129.97 168.64 130.05C169.02 130.13 169.42 129.72 169.53 129.13C169.64 128.54 169.42 128 169.04 127.92C168.66 127.84 168.26 128.25 168.15 128.84Z" fill="#263238"/>
<path d="M174.75 130.25C174.64 130.84 174.86 131.39 175.24 131.47C175.62 131.55 176.02 131.14 176.13 130.55C176.24 129.96 176.02 129.42 175.64 129.34C175.26 129.26 174.86 129.67 174.75 130.25Z" fill="#263238"/>
<path d="M172.59 130.1C172.955 132.05 173.577 133.944 174.44 135.73C173.985 135.931 173.49 136.029 172.992 136.017C172.494 136.005 172.005 135.883 171.56 135.66L172.59 130.1Z" fill="#FFB573"/>
<path d="M168.88 136.74C168.226 136.52 167.623 136.17 167.107 135.711C166.592 135.253 166.174 134.694 165.88 134.07C165.866 134.048 165.858 134.023 165.855 133.996C165.852 133.97 165.855 133.944 165.863 133.919C165.871 133.894 165.885 133.871 165.903 133.852C165.921 133.833 165.943 133.819 165.968 133.809C165.992 133.799 166.018 133.795 166.044 133.797C166.071 133.798 166.096 133.806 166.119 133.818C166.142 133.831 166.162 133.848 166.178 133.869C166.194 133.89 166.205 133.914 166.21 133.94C166.541 134.614 167.022 135.202 167.617 135.66C168.212 136.118 168.904 136.433 169.64 136.58C169.663 136.584 169.686 136.592 169.706 136.605C169.726 136.617 169.743 136.634 169.756 136.654C169.77 136.674 169.779 136.696 169.783 136.72C169.787 136.743 169.786 136.767 169.78 136.79C169.768 136.834 169.74 136.873 169.701 136.897C169.662 136.921 169.615 136.929 169.57 136.92C169.336 136.874 169.106 136.814 168.88 136.74Z" fill="#263238"/>
<path d="M166.51 126.25C166.453 126.23 166.401 126.196 166.361 126.15C166.321 126.104 166.294 126.049 166.282 125.989C166.27 125.93 166.273 125.868 166.292 125.81C166.311 125.753 166.345 125.701 166.39 125.66C166.794 125.28 167.285 125.004 167.82 124.857C168.356 124.711 168.919 124.698 169.46 124.82C169.549 124.848 169.624 124.909 169.669 124.992C169.714 125.074 169.725 125.17 169.7 125.26C169.67 125.348 169.608 125.422 169.527 125.466C169.445 125.51 169.35 125.523 169.26 125.5C168.835 125.41 168.394 125.425 167.976 125.544C167.558 125.662 167.175 125.881 166.86 126.18C166.813 126.222 166.756 126.251 166.695 126.263C166.633 126.275 166.569 126.271 166.51 126.25Z" fill="#263238"/>
<path d="M178 128.57C177.946 128.554 177.898 128.525 177.859 128.484C177.821 128.444 177.793 128.394 177.78 128.34C177.677 127.903 177.474 127.494 177.188 127.148C176.902 126.801 176.54 126.525 176.13 126.34C176.086 126.326 176.045 126.302 176.01 126.271C175.975 126.241 175.947 126.203 175.927 126.161C175.908 126.118 175.897 126.073 175.896 126.026C175.894 125.98 175.903 125.933 175.92 125.89C175.95 125.803 176.013 125.731 176.095 125.69C176.177 125.649 176.273 125.642 176.36 125.67C176.877 125.89 177.335 126.228 177.698 126.657C178.061 127.086 178.319 127.594 178.45 128.14C178.475 128.229 178.463 128.324 178.418 128.404C178.374 128.485 178.299 128.545 178.21 128.57C178.142 128.595 178.068 128.595 178 128.57Z" fill="#263238"/>
<path d="M165.44 191.38L173.36 187.28L172 196.53C172 196.53 165.49 198.32 164.88 194.89L165.44 191.38Z" fill="#FFB573"/>
<path d="M170.84 188.58C171.726 187.502 172.813 186.606 174.04 185.94C174.926 185.54 175.773 185.058 176.57 184.5C176.645 184.46 176.729 184.441 176.815 184.443C176.9 184.446 176.983 184.47 177.055 184.515C177.128 184.559 177.188 184.622 177.229 184.696C177.27 184.771 177.291 184.855 177.29 184.94C177.137 185.569 176.857 186.16 176.467 186.676C176.076 187.192 175.584 187.623 175.02 187.94C174.6 189.73 171.6 191.3 171.6 191.3L170.84 188.58Z" fill="#FFB573"/>
<path d="M179.84 188.56L178.73 194.33C178.682 194.578 178.561 194.805 178.383 194.984C178.205 195.162 177.977 195.283 177.73 195.33L171.93 196.53L173.34 187.36L178.55 187.09C178.738 187.077 178.928 187.108 179.103 187.18C179.278 187.252 179.434 187.364 179.558 187.506C179.683 187.648 179.774 187.817 179.822 188C179.871 188.183 179.877 188.375 179.84 188.56Z" fill="#FFB573"/>
<path d="M164.83 194.89L165.44 191.38L173.36 187.28" fill="#FFB573"/>
<path d="M191.21 192.14L184.9 188.32L184.44 196.53C184.44 196.53 191.09 199.08 191.76 195.65L191.21 192.14Z" fill="#FFB573"/>
<path d="M182 188.41L181.5 194.88C181.486 195.057 181.532 195.234 181.629 195.383C181.727 195.531 181.872 195.643 182.04 195.7L184.43 196.53L184.89 188.32L183.07 187.7C182.953 187.66 182.828 187.647 182.704 187.663C182.581 187.679 182.464 187.723 182.36 187.792C182.257 187.86 182.171 187.952 182.108 188.059C182.046 188.166 182.009 188.286 182 188.41Z" fill="#FFB573"/>
<path d="M172.69 87.2101C172.69 87.9221 172.479 88.6181 172.083 89.2102C171.687 89.8022 171.125 90.2636 170.467 90.5361C169.81 90.8085 169.086 90.8798 168.387 90.7409C167.689 90.602 167.048 90.2592 166.544 89.7557C166.041 89.2522 165.698 88.6108 165.559 87.9124C165.42 87.2141 165.491 86.4903 165.764 85.8324C166.036 85.1746 166.498 84.6124 167.09 84.2168C167.682 83.8212 168.378 83.6101 169.09 83.6101C170.045 83.6101 170.96 83.9894 171.635 84.6645C172.31 85.3397 172.69 86.2553 172.69 87.2101Z" fill="#000000"/>
<path d="M158.52 89.3302C158.52 90.0422 158.309 90.7383 157.913 91.3303C157.518 91.9223 156.955 92.3837 156.297 92.6562C155.64 92.9287 154.916 93 154.218 92.861C153.519 92.7221 152.878 92.3793 152.374 91.8758C151.871 91.3723 151.528 90.7309 151.389 90.0325C151.25 89.3342 151.321 88.6104 151.594 87.9526C151.866 87.2947 152.328 86.7325 152.92 86.3369C153.512 85.9414 154.208 85.7302 154.92 85.7302C155.875 85.7302 156.79 86.1095 157.465 86.7846C158.141 87.4598 158.52 88.3754 158.52 89.3302Z" fill="#000000"/>
<path d="M183.27 95.0601C185.258 95.0601 186.87 93.4483 186.87 91.4601C186.87 89.4719 185.258 87.8601 183.27 87.8601C181.282 87.8601 179.67 89.4719 179.67 91.4601C179.67 93.4483 181.282 95.0601 183.27 95.0601Z" fill="#000000"/>
</svg>
