<svg width="1024" height="1024" viewBox="0 0 1024 1024" fill="none" xmlns="http://www.w3.org/2000/svg">
<path d="M444 221C362.8 231.4 298 276.467 256.133 351.933C239.067 382.733 226.267 422.2 220.4 462.2C217.2 484.733 217.2 534.867 220.4 556.733C233.067 641 278.933 714.467 347.6 760.2C404.533 798.067 468.4 813 536.267 804.2C590.041 797.362 640.19 774.407 681.896 738.048C691.504 729.672 689.356 714.586 678.284 708.27V708.27C673.212 705.377 666.853 705.504 661.471 707.771C651.205 712.095 630.678 718.912 594.667 724.2C589.2 725 576 725.667 565.333 725.667C529.333 725.533 499.2 718.733 467.333 703.4C414.133 678.067 376.133 635.533 358.133 581.267C353.733 568.333 349.067 541.133 350.133 535.4C351.169 529.705 367.726 524.848 379.283 522.129C385.909 520.571 392.628 523.759 396.267 529.511C407.222 546.831 432.393 582.961 462.133 601.4C496.391 622.778 527.885 636.202 545.455 642.894C554.311 646.267 564.164 643.783 570.788 637.006V637.006C576.677 630.979 576.492 621.298 570.376 615.501L555.5 601.4C555.5 601.4 532.267 577 528.667 566.867C524.8 556.333 524.4 528.733 527.867 523C528.667 521.8 532.533 523.133 544.133 529C607.067 560.467 664.533 581.267 707.2 587.667C733.733 591.667 760 590.067 771.467 583.667C776 581.133 777.467 579 782.933 566.867C801.067 526.067 808.4 484.067 804 444.867C799.067 402.2 780.267 357.4 749.867 317.267C738.533 302.2 715.733 281.133 702 269C701.395 268.466 700.809 267.93 700.24 267.391C693.149 260.683 675.578 261.603 672.065 270.71C671.04 273.365 669.951 276.176 668.8 279.133L664.084 302.512C663.438 305.714 659.429 306.844 657.197 304.459C653.02 299.997 647.297 293.954 643.467 290.2C589.6 236.733 517.2 211.533 444 221ZM714.267 397.667C726 402.067 734 418.467 730.667 431.133C727.333 443.933 715.467 453.533 703.467 453.533C692.4 453.4 680.8 444.867 677.333 434.2C674.667 426.067 676.133 414.467 680.8 407.8C687.733 397.933 702.8 393.267 714.267 397.667Z" fill="#424242"/>
<path d="M484 219.355C480.965 219.181 486.975 219.525 484 219.355C493.5 219.355 515.234 221.742 524 224.355C524.973 242.714 520.126 261.597 516.771 279.618C516.162 282.903 515.553 286.188 514.925 289.573C503.457 349.27 503.457 349.27 487.375 373.386C481.258 373.057 481.258 373.057 473.781 370.749C446.781 336.374 433 266.505 433 223.093C451.5 219.855 464.734 218.232 484 219.355Z" fill="#777777"/>
<path d="M616.091 265.955C616.091 265.955 622.158 271.187 624.091 272.455C624.091 272.455 633.81 280.9 638.591 285.955C632.249 298.42 623.5 307.93 614.437 318.525C612.786 320.458 611.135 322.39 609.434 324.381C579.175 359.344 579.175 359.344 559.41 369.114C555.506 366.57 555.506 366.57 551.458 362.207C546.745 329.294 567.08 274.053 583.591 245.456C597.117 251.218 616.091 265.955 616.091 265.955Z" fill="#777777"/>
<path d="M342.155 256.513C343.618 255.574 343.618 255.574 345.11 254.616C349.623 251.774 353.991 249.127 359.024 247.357C365.774 255.691 370.089 265.178 374.68 274.834C375.518 276.594 376.356 278.353 377.219 280.166C392.259 312.277 392.259 312.277 392.929 329.171C389.929 331.112 389.929 331.112 385.609 332.584C361.085 325.607 330.641 297.346 315.767 276.852C324.027 269.178 332.675 262.583 342.155 256.513Z" fill="#777777"/>
<circle cx="704.5" cy="425.5" r="45.5" fill="#FFFFFF"/>
<circle cx="712.5" cy="433.5" r="40.5" fill="#000000"/>
</svg>
