<svg width="500" height="500" viewBox="0 0 500 500" fill="none" xmlns="http://www.w3.org/2000/svg">
<path d="M350.08 175.25C345.94 210.25 371.02 263.94 327.78 282.86C291.51 298.72 261.21 275.77 231.71 307.51C210.21 330.64 172.94 368.04 144.81 329.29C122.81 298.98 121.67 253.75 132.3 219.43C140.65 192.43 167.72 137.05 202.99 132.43C242.62 127.21 267.73 179.19 289.49 126.73C302.58 95.1701 330.2 57.8601 373.29 83.5201C390.29 93.6401 385.4 106.2 376.39 119.27C363.1 138.54 352.92 151.19 350.08 175.25Z"  fill="#000000"/>
<path opacity="0.9" d="M350.08 175.25C345.94 210.25 371.02 263.94 327.78 282.86C291.51 298.72 261.21 275.77 231.71 307.51C210.21 330.64 172.94 368.04 144.81 329.29C122.81 298.98 121.67 253.75 132.3 219.43C140.65 192.43 167.72 137.05 202.99 132.43C242.62 127.21 267.73 179.19 289.49 126.73C302.58 95.1701 330.2 57.8601 373.29 83.5201C390.29 93.6401 385.4 106.2 376.39 119.27C363.1 138.54 352.92 151.19 350.08 175.25Z"  fill="#FFFFFF"/>
<path d="M250 427.56C357.082 427.56 443.89 422.492 443.89 416.24C443.89 409.988 357.082 404.92 250 404.92C142.917 404.92 56.1099 409.988 56.1099 416.24C56.1099 422.492 142.917 427.56 250 427.56Z"  fill="#FFFFFF"/>
<path d="M99.0727 176.995L98.0732 177.028L98.5082 190.351L99.5077 190.318L99.0727 176.995Z"  fill="#000000"/>
<path d="M98.6982 165.497L97.6987 165.53L97.9056 171.867L98.9051 171.834L98.6982 165.497Z"  fill="#000000"/>
<path d="M112.2 261.87H303.06C304.08 261.875 305.091 261.673 306.031 261.277C306.971 260.881 307.822 260.298 308.531 259.565C309.24 258.832 309.793 257.962 310.157 257.009C310.522 256.056 310.689 255.039 310.65 254.02L306.4 123.79C306.316 121.692 305.427 119.707 303.92 118.246C302.412 116.784 300.4 115.959 298.3 115.94H107.44C106.42 115.935 105.408 116.137 104.468 116.533C103.527 116.929 102.676 117.511 101.966 118.244C101.256 118.978 100.702 119.847 100.337 120.8C99.9713 121.753 99.8024 122.77 99.8401 123.79L104.09 254C104.172 256.102 105.06 258.093 106.57 259.558C108.08 261.023 110.096 261.851 112.2 261.87Z"  fill="#000000"/>
<path d="M112.81 261.87H303.67C304.691 261.875 305.702 261.673 306.643 261.277C307.583 260.881 308.434 260.299 309.144 259.566C309.854 258.832 310.408 257.963 310.774 257.01C311.139 256.057 311.308 255.04 311.27 254.02L307 123.79C306.913 121.691 306.023 119.706 304.513 118.245C303.004 116.784 300.991 115.959 298.89 115.94H108.05C107.03 115.935 106.019 116.137 105.079 116.533C104.139 116.929 103.289 117.512 102.58 118.245C101.87 118.978 101.317 119.848 100.953 120.801C100.589 121.754 100.421 122.771 100.46 123.79L104.71 254C104.79 256.102 105.676 258.092 107.184 259.557C108.692 261.023 110.707 261.851 112.81 261.87Z"  fill="#000000"/>
<path opacity="0.5" d="M112.81 261.87H303.67C304.691 261.875 305.702 261.673 306.643 261.277C307.583 260.881 308.434 260.299 309.144 259.566C309.854 258.832 310.408 257.963 310.774 257.01C311.139 256.057 311.308 255.04 311.27 254.02L307 123.79C306.913 121.691 306.023 119.706 304.513 118.245C303.004 116.784 300.991 115.959 298.89 115.94H108.05C107.03 115.935 106.019 116.137 105.079 116.533C104.139 116.929 103.289 117.512 102.58 118.245C101.87 118.978 101.317 119.848 100.953 120.801C100.589 121.754 100.421 122.771 100.46 123.79L104.71 254C104.79 256.102 105.676 258.092 107.184 259.557C108.692 261.023 110.707 261.851 112.81 261.87Z"  fill="#FFFFFF"/>
<path opacity="0.5" d="M298.43 119.86H107.56H106.92C102.03 120.26 102.73 127.68 107.66 127.68H298.85C303.77 127.68 303.99 120.26 299.07 119.86C298.86 119.87 298.64 119.86 298.43 119.86Z"  fill="#000000"/>
<path d="M112.38 123.79C112.388 124.023 112.349 124.255 112.265 124.473C112.181 124.69 112.054 124.889 111.891 125.056C111.729 125.223 111.534 125.356 111.319 125.446C111.104 125.536 110.873 125.582 110.64 125.58C110.159 125.578 109.698 125.391 109.351 125.057C109.005 124.724 108.8 124.27 108.78 123.79C108.77 123.556 108.808 123.323 108.892 123.104C108.975 122.885 109.102 122.686 109.264 122.518C109.427 122.349 109.622 122.216 109.838 122.125C110.054 122.034 110.286 121.988 110.52 121.99C111.003 121.99 111.467 122.177 111.814 122.513C112.161 122.849 112.364 123.307 112.38 123.79Z"  fill="#FFFFFF"/>
<path d="M118.5 123.79C118.509 124.023 118.471 124.256 118.388 124.474C118.304 124.693 118.177 124.892 118.015 125.059C117.852 125.227 117.657 125.359 117.441 125.449C117.225 125.538 116.993 125.583 116.76 125.58C116.28 125.575 115.82 125.388 115.474 125.055C115.128 124.722 114.923 124.269 114.9 123.79C114.89 123.556 114.928 123.323 115.012 123.104C115.095 122.885 115.222 122.686 115.385 122.518C115.547 122.349 115.742 122.216 115.958 122.125C116.174 122.034 116.406 121.988 116.64 121.99C117.123 121.99 117.587 122.177 117.934 122.513C118.281 122.849 118.484 123.307 118.5 123.79Z"  fill="#FFFFFF"/>
<path d="M124.134 125.077C124.819 124.38 124.791 123.241 124.07 122.532C123.349 121.824 122.209 121.815 121.524 122.512C120.839 123.209 120.867 124.348 121.588 125.057C122.309 125.765 123.449 125.775 124.134 125.077Z"  fill="#FFFFFF"/>
<path d="M116.51 248.87H299.13C299.5 248.873 299.866 248.801 300.207 248.658C300.548 248.515 300.856 248.305 301.113 248.039C301.37 247.774 301.571 247.459 301.703 247.113C301.835 246.768 301.895 246.399 301.88 246.03L298.38 138.92C298.34 138.163 298.014 137.449 297.468 136.922C296.923 136.395 296.198 136.094 295.44 136.08H112.83C112.46 136.077 112.094 136.149 111.753 136.292C111.412 136.435 111.104 136.645 110.846 136.911C110.589 137.176 110.389 137.491 110.257 137.837C110.125 138.182 110.065 138.551 110.08 138.92L113.57 246C113.603 246.763 113.925 247.484 114.471 248.017C115.018 248.55 115.747 248.855 116.51 248.87Z"  fill="#FFFFFF"/>
<g opacity="0.3">
<path d="M250.529 235.62H247.189V234.67H249.549L249.469 232.31L250.419 232.28L250.529 235.62Z"  fill="#000000"/>
<path d="M241.88 235.62H236.57V234.62H241.88V235.62ZM231.26 235.62H226V234.62H231.31L231.26 235.62ZM220.64 235.62H215.33V234.62H220.64V235.62ZM210.02 235.62H204.71V234.62H210L210.02 235.62ZM199.41 235.62H194.09V234.62H199.41V235.62ZM188.79 235.62H183.48V234.62H188.79V235.62ZM178.17 235.62H172.86V234.62H178.17V235.62Z"  fill="#000000"/>
<path d="M167.55 235.62H164.24L164.14 232.31L165.08 232.28L165.16 234.67H167.55V235.62Z"  fill="#000000"/>
<path d="M164 227L163.83 221.69H164.83L165 227H164ZM163.66 216.38L163.48 211.07H164.43L164.6 216.38H163.66ZM163.31 205.76L163.14 200.45H164.08L164.26 205.76H163.31ZM162.96 195.15L162.79 189.84H163.74L163.91 195.15H162.96ZM162.62 184.53L162.44 179.22H163.39L163.56 184.53H162.62ZM162.27 173.9L162.1 168.6H163.04L163.22 173.91L162.27 173.9ZM161.92 163.29L161.75 157.98H162.7L162.87 163.29H161.92Z"  fill="#000000"/>
<path d="M161.54 152.66L161.43 149.33H164.76V150.28H162.41L162.48 152.63L161.54 152.66Z"  fill="#000000"/>
<path d="M239.1 150.28H233.79V149.33H239.1V150.28ZM228.48 150.28H223.17V149.33H228.48V150.28ZM217.86 150.28H212.55V149.33H217.86V150.28ZM207.24 150.28H201.93V149.33H207.24V150.28ZM196.62 150.28H191.31V149.33H196.62V150.28ZM186 150.28H180.69V149.33H186V150.28ZM175.38 150.28H170.07V149.33H175.38V150.28Z"  fill="#000000"/>
<path d="M246.87 152.66L246.79 150.28H244.41V149.33H247.71L247.82 152.63L246.87 152.66Z"  fill="#000000"/>
<path d="M249.3 227L249.13 221.69H250.07L250.25 227H249.3ZM249 216.38L248.83 211.07H249.78L249.95 216.38H249ZM248.66 205.77L248.48 200.46H249.43L249.6 205.77H248.66ZM248.31 195.15L248.14 189.84H249.08L249.26 195.15H248.31ZM247.96 184.53L247.79 179.22H248.74L248.91 184.53H247.96ZM247.62 173.91L247.44 168.6H248.44L248.61 173.91H247.62ZM247.27 163.29L247.1 157.98H248.04L248.22 163.29H247.27Z"  fill="#000000"/>
</g>
<path d="M224.82 206H189.91C186.672 205.974 183.569 204.703 181.243 202.45C178.917 200.197 177.549 197.135 177.42 193.9C177.306 190.993 178.278 188.148 180.147 185.919C182.016 183.689 184.648 182.235 187.53 181.84C188.286 178.951 189.979 176.394 192.345 174.572C194.71 172.749 197.614 171.764 200.6 171.77C203.058 171.774 205.474 172.411 207.614 173.619C209.754 174.828 211.547 176.567 212.82 178.67C213.918 178.33 215.061 178.158 216.21 178.16C219.188 178.188 222.053 179.305 224.263 181.3C226.474 183.295 227.878 186.031 228.21 188.99C229.735 189.718 231.034 190.847 231.968 192.256C232.901 193.665 233.434 195.302 233.51 196.99C233.556 198.158 233.365 199.323 232.948 200.416C232.532 201.508 231.899 202.504 231.087 203.345C230.275 204.186 229.301 204.854 228.224 205.309C227.147 205.763 225.989 205.995 224.82 205.99V206ZM200.6 174.1C198.005 174.084 195.487 174.975 193.478 176.618C191.47 178.261 190.099 180.554 189.6 183.1L189.43 183.99L188.53 184.05C186.08 184.2 183.786 185.303 182.139 187.124C180.492 188.944 179.624 191.337 179.72 193.79C179.823 196.422 180.936 198.913 182.828 200.746C184.72 202.579 187.246 203.611 189.88 203.63H224.79C225.645 203.638 226.493 203.471 227.282 203.141C228.071 202.811 228.784 202.324 229.379 201.709C229.974 201.095 230.438 200.366 230.742 199.566C231.047 198.767 231.185 197.915 231.15 197.06C231.086 195.7 230.628 194.389 229.83 193.286C229.033 192.183 227.931 191.337 226.66 190.85L225.94 190.57V189.8C225.813 187.297 224.735 184.937 222.927 183.201C221.119 181.465 218.716 180.485 216.21 180.46C215.017 180.457 213.835 180.688 212.73 181.14L211.73 181.54L211.24 180.6C210.23 178.65 208.703 177.014 206.827 175.871C204.951 174.728 202.797 174.123 200.6 174.12V174.1Z"  fill="#000000"/>
<path d="M214.76 194.68L205.13 185.35L196.11 194.68H201.39L201.71 204.32H209.8L209.48 194.68H214.76Z"  fill="#000000"/>
<path d="M367 156.8C367.92 158.13 368.66 159.25 369.42 160.49C370.18 161.73 370.9 162.93 371.6 164.18C373 166.66 374.3 169.18 375.49 171.82C376.715 174.453 377.797 177.15 378.73 179.9C379.726 182.722 380.515 185.613 381.09 188.55L381.47 190.83L381.52 191.12L381.58 191.48C381.58 191.83 381.66 192.13 381.67 192.48C381.69 192.873 381.69 193.267 381.67 193.66L381.62 194.29L381.51 194.99C381.426 195.487 381.298 195.975 381.13 196.45C380.946 196.978 380.712 197.487 380.43 197.97C379.869 198.949 379.117 199.806 378.22 200.49C376.899 201.494 375.349 202.154 373.71 202.41C372.633 202.586 371.539 202.64 370.45 202.57C369.561 202.529 368.675 202.425 367.8 202.26C366.255 201.963 364.728 201.572 363.23 201.09C360.492 200.172 357.819 199.07 355.23 197.79C352.677 196.559 350.199 195.176 347.81 193.65L350.69 187.27C355.658 188.613 360.691 189.701 365.77 190.53C366.893 190.7 368.025 190.797 369.16 190.82C369.886 190.882 370.616 190.801 371.31 190.58C371.37 190.53 371.14 190.46 370.48 190.9C369.932 191.301 369.515 191.854 369.28 192.49C369.218 192.646 369.167 192.806 369.13 192.97L369.07 193.29C369.073 193.347 369.073 193.403 369.07 193.46V193.33V193.12L368.62 191.44C367.17 186.746 365.289 182.197 363 177.85C361.87 175.59 360.63 173.36 359.37 171.15C358.74 170.04 358.09 168.95 357.44 167.86C356.79 166.77 356.09 165.63 355.51 164.72L367 156.8Z" fill="#FFB573"/>
<path d="M351.79 187.81L347.45 183.49L343.14 193.1C343.14 193.1 347.22 195.37 350.85 193.72L351.79 187.81Z" fill="#FFB573"/>
<path d="M341.04 180.04L337.84 188.16L343.13 193.1L347.45 183.49L341.04 180.04Z" fill="#FFB573"/>
<path d="M355.682 160.016L272.423 145.35L257.758 228.609L341.016 243.274L355.682 160.016Z"  fill="#000000"/>
<path opacity="0.6" d="M355.682 160.016L272.423 145.35L257.758 228.609L341.016 243.274L355.682 160.016Z"  fill="#FFFFFF"/>
<path d="M350.911 163.349L275.758 150.111L262.52 225.264L337.673 238.502L350.911 163.349Z"  fill="#FFFFFF"/>
<path opacity="0.3" d="M311.131 188.508C317.504 184.044 319.052 175.258 314.587 168.884C310.123 162.51 301.337 160.963 294.963 165.427C288.59 169.892 287.042 178.678 291.507 185.051C295.971 191.425 304.757 192.973 311.131 188.508Z"  fill="#000000"/>
<path opacity="0.2" d="M320.66 197.48L295.47 215.12L283.89 198.58L264.88 211.89L262.52 225.28L337.67 238.51L340.03 225.13L320.66 197.48Z"  fill="#000000"/>
<path d="M324.79 126.51C324.79 127.18 324.47 127.73 324.03 127.74C323.59 127.75 323.23 127.21 323.22 126.55C323.21 125.89 323.55 125.33 323.98 125.33C324.41 125.33 324.78 125.85 324.79 126.51Z" fill="#263238"/>
<path d="M324.53 127.72C323.775 129.77 322.746 131.707 321.47 133.48C321.932 133.794 322.456 134.005 323.007 134.096C323.558 134.188 324.122 134.158 324.66 134.01L324.53 127.72Z"  fill="#FFFFFF"/>
<path d="M327.14 122.77C327.036 122.791 326.928 122.769 326.84 122.71C326.449 122.413 325.991 122.217 325.506 122.139C325.022 122.06 324.525 122.102 324.06 122.26C323.963 122.3 323.855 122.299 323.758 122.259C323.662 122.219 323.585 122.142 323.545 122.045C323.505 121.948 323.506 121.84 323.546 121.743C323.586 121.646 323.663 121.57 323.76 121.53C324.349 121.334 324.977 121.281 325.59 121.375C326.204 121.469 326.787 121.707 327.29 122.07C327.375 122.129 327.433 122.218 327.451 122.319C327.47 122.421 327.448 122.525 327.39 122.61C327.331 122.693 327.241 122.751 327.14 122.77Z" fill="#263238"/>
<path d="M344.07 129.05C343.65 135.19 344.13 147.58 348.82 151.05C348.82 151.05 347.67 156.05 336.54 157.46C324.31 158.99 329.93 152.12 329.93 152.12C336.41 149.68 335.62 144.75 333.87 140.24L344.07 129.05Z" fill="#FFB573"/>
<path d="M374.39 394.57H374.32C374.173 394.493 374.053 394.371 373.977 394.222C373.902 394.073 373.875 393.905 373.9 393.74C373.903 393.608 373.935 393.479 373.994 393.362C374.053 393.244 374.137 393.141 374.24 393.06C375.18 392.26 377.92 392.61 378.04 392.62C378.077 392.627 378.111 392.644 378.139 392.668C378.168 392.693 378.189 392.724 378.2 392.76C378.211 392.795 378.211 392.833 378.2 392.869C378.19 392.904 378.169 392.936 378.14 392.96C377.5 393.48 375.38 394.91 374.39 394.57ZM377.52 392.93C376.59 392.86 375.05 392.85 374.52 393.32C374.46 393.368 374.411 393.429 374.377 393.498C374.342 393.567 374.323 393.643 374.32 393.72C374.32 394.09 374.46 394.16 374.51 394.19C375 394.44 376.51 393.68 377.52 392.93Z"  fill="#000000"/>
<path d="M376.63 392.68C375.63 392.35 374.63 391.78 374.48 391.2C374.441 391.059 374.451 390.908 374.509 390.773C374.567 390.639 374.67 390.528 374.8 390.46C374.923 390.376 375.063 390.319 375.209 390.294C375.356 390.268 375.506 390.273 375.65 390.31C376.86 390.56 378.12 392.6 378.18 392.68C378.2 392.71 378.211 392.744 378.211 392.78C378.211 392.816 378.2 392.85 378.18 392.88C378.165 392.911 378.14 392.938 378.11 392.955C378.08 392.973 378.045 392.982 378.01 392.98C377.539 392.945 377.074 392.844 376.63 392.68ZM375.71 390.73H375.57C375.477 390.705 375.379 390.702 375.284 390.719C375.189 390.736 375.099 390.774 375.02 390.83C374.81 390.97 374.84 391.08 374.85 391.13C375.01 391.66 376.57 392.4 377.62 392.59C377.161 391.811 376.501 391.168 375.71 390.73Z"  fill="#000000"/>
<path d="M313.67 408.24C312.61 408.24 311.59 408.09 311.24 407.62C311.152 407.494 311.104 407.344 311.104 407.19C311.104 407.036 311.152 406.886 311.24 406.76C311.309 406.648 311.399 406.55 311.505 406.473C311.612 406.396 311.732 406.341 311.86 406.31C313.23 405.93 316.12 407.57 316.24 407.64C316.275 407.662 316.302 407.693 316.318 407.731C316.334 407.768 316.338 407.81 316.33 407.85C316.325 407.889 316.307 407.925 316.28 407.954C316.254 407.982 316.218 408.002 316.18 408.01C315.351 408.156 314.512 408.233 313.67 408.24ZM312.36 406.64C312.234 406.624 312.106 406.624 311.98 406.64C311.901 406.658 311.826 406.692 311.761 406.74C311.695 406.789 311.641 406.85 311.6 406.92C311.46 407.16 311.51 407.28 311.6 407.35C311.98 407.88 314.07 407.89 315.6 407.68C314.599 407.123 313.498 406.769 312.36 406.64Z"  fill="#000000"/>
<path d="M316.16 408H316.08C315.08 407.56 313.08 405.77 313.26 404.84C313.26 404.62 313.45 404.35 313.99 404.29C314.184 404.271 314.379 404.291 314.565 404.349C314.75 404.408 314.922 404.503 315.07 404.63C316.12 405.49 316.35 407.71 316.35 407.81C316.354 407.843 316.348 407.876 316.334 407.906C316.32 407.936 316.298 407.962 316.27 407.98C316.237 408.001 316.198 408.008 316.16 408ZM314.16 404.65H314C313.65 404.65 313.63 404.83 313.62 404.87C313.53 405.43 314.87 406.87 315.88 407.44C315.791 406.502 315.414 405.615 314.8 404.9C314.617 404.749 314.387 404.664 314.15 404.66L314.16 404.65Z"  fill="#000000"/>
<path d="M325.23 407.81H316.98L316.16 388.71H324.41L325.23 407.81Z" fill="#FFB573"/>
<path d="M386.92 390.39L379.27 392.49L369.48 374.58L377.13 372.48L386.92 390.39Z" fill="#FFB573"/>
<path d="M378.12 391.66L386.38 387.43C386.527 387.359 386.693 387.339 386.853 387.373C387.012 387.408 387.156 387.494 387.26 387.62L392.05 393.4C392.165 393.542 392.246 393.709 392.288 393.887C392.33 394.065 392.331 394.25 392.292 394.428C392.252 394.607 392.173 394.774 392.06 394.918C391.948 395.062 391.804 395.179 391.64 395.26C388.74 396.68 387.25 397.26 383.64 399.09C381.41 400.23 374.77 405.17 371.42 406.09C368.07 407.01 366.77 403.76 368.06 403.09C372.293 400.914 375.549 397.222 377.18 392.75C377.347 392.283 377.682 391.894 378.12 391.66Z" fill="#263238"/>
<path d="M317 406.86H326C326.163 406.86 326.321 406.916 326.448 407.018C326.575 407.119 326.664 407.261 326.7 407.42L328.33 414.76C328.371 414.937 328.372 415.121 328.331 415.298C328.29 415.476 328.209 415.641 328.094 415.782C327.979 415.923 327.833 416.036 327.668 416.112C327.502 416.188 327.322 416.225 327.14 416.22C323.89 416.17 319.19 415.98 315.14 415.98C310.36 415.98 306.24 416.24 300.64 416.24C297.25 416.24 296.31 412.81 297.73 412.5C304.18 411.09 309.45 410.94 315.03 407.5C315.615 407.109 316.297 406.888 317 406.86Z" fill="#263238"/>
<path d="M352.48 166.33C353.34 168.54 354.29 170.7 355.25 172.73C356.89 176.24 358.53 179.3 359.72 181.41C360.78 183.32 361.48 184.41 361.48 184.41L379.48 175.47C379.48 175.47 372.22 154.6 364.64 152.27C356.89 150 348.59 156.38 352.48 166.33Z" fill="#263238"/>
<path opacity="0.2" d="M360.47 168.39C358.9 169.54 357.78 172.65 356.98 176.3C357.98 178.3 358.98 180.05 359.72 181.41C360.78 183.32 361.48 184.41 361.48 184.41L363.54 183.41C363.5 178.252 362.457 173.15 360.47 168.39Z"  fill="#000000"/>
<path d="M314.38 179.64C314.38 182.44 314.45 185.53 314.6 188.94C315.01 198.19 316.02 209.72 317.95 224.05H362.07C362.38 217.28 358.12 184.23 364.66 152.31C359.778 151.375 354.841 150.754 349.88 150.45C343.632 150.09 337.368 150.09 331.12 150.45C326.838 150.891 322.596 151.656 318.43 152.74C318.43 152.74 314.37 157.33 314.38 179.64Z" fill="#263238"/>
<path d="M325.73 166.54C325.074 167.913 324.343 169.248 323.54 170.54C322.81 171.72 322.07 172.86 321.31 173.96C319.79 176.16 318.2 178.28 316.53 180.35C313.168 184.552 309.444 188.45 305.4 192C303.243 193.89 300.932 195.596 298.49 197.1L297.49 197.68L297.23 197.82L296.87 198L296.14 198.35C295.201 198.793 294.214 199.129 293.2 199.35C291.404 199.711 289.564 199.805 287.74 199.63C284.696 199.268 281.738 198.378 279 197C277.733 196.379 276.507 195.678 275.33 194.9C274.138 194.127 272.998 193.275 271.92 192.35L275.46 186.35C279.79 187.49 284.67 188.51 288.03 188.03C288.725 187.964 289.402 187.774 290.03 187.47C290.237 187.369 290.431 187.245 290.61 187.1L290.7 187.01H290.76L290.9 186.9L291.51 186.48C293.222 185.176 294.846 183.759 296.37 182.24C299.635 178.936 302.671 175.415 305.46 171.7C306.89 169.83 308.27 167.91 309.6 165.98C310.25 164.98 310.9 164.06 311.5 163.11C312.1 162.16 312.7 161.19 313.01 160.58L325.73 166.54Z" fill="#FFB573"/>
<path d="M277.22 187.18L269.61 183.57L268.92 193.78C268.92 193.78 274.84 194.78 277.97 192.49L277.22 187.18Z" fill="#FFB573"/>
<path d="M260.02 185.31L262.95 193.09L268.92 193.78L269.61 183.57L260.02 185.31Z" fill="#FFB573"/>
<path d="M331.18 161.13C330.92 169.02 314.68 187.18 314.68 187.18L297.53 176C297.53 176 303 165.8 310 158.43C320.69 147.33 331.49 151.67 331.18 161.13Z" fill="#263238"/>
<path opacity="0.2" d="M316.16 388.71L316.58 398.56H324.84L324.42 388.71H316.16Z"  fill="#000000"/>
<path opacity="0.2" d="M377.13 372.48L369.48 374.59L374.53 383.82L382.18 381.71L377.13 372.48Z"  fill="#000000"/>
<path d="M347 124.64C346.67 132.82 346.9 137.64 342.86 141.91C336.78 148.34 326.62 144.81 324.5 136.7C322.59 129.39 323.45 117.24 331.38 113.82C333.125 113.056 335.036 112.751 336.932 112.935C338.828 113.119 340.645 113.784 342.211 114.869C343.777 115.954 345.039 117.421 345.877 119.131C346.715 120.842 347.102 122.738 347 124.64Z" fill="#FFB573"/>
<path d="M330.67 128.54C327.72 126.44 324.83 122.11 325.06 118.89C322.33 118.78 320.5 114.28 322 111C322.94 113.11 326.19 111.56 327.46 109.89C326.78 108.28 326.89 105.61 331.56 103.72C331.17 105.08 331.37 107.37 336.06 105.72C341.75 103.72 351.75 105.06 348.82 111.83C352.82 112.56 358.03 120.83 353.61 125.18C349.19 129.53 348.28 136.56 344.5 137.28C340.72 138 330.89 138.25 330.67 128.54Z" fill="#263238"/>
<path d="M346.16 111.56C347.751 110.898 349.518 110.792 351.176 111.258C352.835 111.724 354.288 112.736 355.3 114.13C352.423 112.756 349.331 111.887 346.16 111.56Z" fill="#263238"/>
<path d="M332.82 128.19C332.738 130.007 332.06 131.747 330.89 133.14C329.33 134.96 327.62 133.9 327.27 131.75C326.96 129.82 327.4 126.54 329.34 125.51C331.28 124.48 332.89 126 332.82 128.19Z" fill="#FFB573"/>
<path d="M333.6 224.05C333.6 224.05 329.71 286.48 337.09 309.5C348.77 345.96 369.61 383.21 369.61 383.21L384.51 378.73C384.51 378.73 368.12 339.41 362.73 308.73C357.89 281.14 362.07 246.62 362.07 224.08L333.6 224.05Z"  fill="#000000"/>
<path opacity="0.2" d="M333 238C337.16 236.79 340.41 237.25 341.25 240.95C343.45 250.62 336.85 276.13 333.56 287.8C332.2 271 332.51 251 333 238Z"  fill="#000000"/>
<path d="M365.4 378.94C365.34 378.94 369.29 383.55 369.29 383.55L385.57 378.65L383.5 373.15L365.4 378.94Z" fill="#263238"/>
<path d="M318 224.05C318 224.05 305.57 276.72 304.69 301.88C303.69 330.1 313.56 396.65 313.56 396.65H327.56C327.56 396.65 329.28 329.58 329.9 303.88C330.58 275.88 347.02 224.05 347.02 224.05H318Z"  fill="#000000"/>
<path d="M310.82 391.09C310.76 391.09 311.61 396.89 311.61 396.89H328.61L329.07 391.71L310.82 391.09Z" fill="#263238"/>
<path d="M324.12 148.52C326.02 147.86 340.43 146.03 350.89 146.59C356.89 146.91 360.23 147.59 362.67 148.74C365.11 149.89 360.74 155.86 358.72 156.59C359.54 158.87 354.99 161.78 352.4 163.16C351.4 165.3 341.13 167.28 335.13 162.68C330.52 159.14 318.73 150.39 324.12 148.52Z"  fill="#000000"/>
</svg>
